<?xml version="1.0" encoding="utf-8"?>
<!-- Generator: Adobe Illustrator 24.0.0, SVG Export Plug-In . SVG Version: 6.00 Build 0)  -->
<svg version="1.1" id="Capa_1" xmlns="http://www.w3.org/2000/svg" xmlns:xlink="http://www.w3.org/1999/xlink" x="0px" y="0px"
	 viewBox="0 0 164.9 245.9" style="enable-background:new 0 0 164.9 245.9;" xml:space="preserve">
<style type="text/css">
	.st0{fill:#332857;}
</style>
<g>
	<path class="st0" d="M125,6.8c0,1-0.8,1.9-1.9,1.9c-1,0-1.9-0.8-1.9-1.9c0-1,0.8-1.9,1.9-1.9C124.2,4.9,125,5.7,125,6.8z"/>
</g>
<g>
	<path class="st0" d="M130,6.8c0,1-0.8,1.9-1.9,1.9c-1,0-1.9-0.8-1.9-1.9c0-1,0.8-1.9,1.9-1.9C129.2,4.9,130,5.7,130,6.8z"/>
</g>
<g>
	<path class="st0" d="M135.1,6.8c0,1-0.8,1.9-1.9,1.9c-1,0-1.9-0.8-1.9-1.9c0-1,0.8-1.9,1.9-1.9C134.2,4.9,135.1,5.7,135.1,6.8z"/>
</g>
<g>
	<path class="st0" d="M140.1,6.8c0,1-0.8,1.9-1.9,1.9c-1,0-1.9-0.8-1.9-1.9c0-1,0.8-1.9,1.9-1.9C139.3,4.9,140.1,5.7,140.1,6.8z"/>
</g>
<g>
	<path class="st0" d="M145.2,6.8c0,1-0.8,1.9-1.9,1.9c-1,0-1.9-0.8-1.9-1.9c0-1,0.8-1.9,1.9-1.9C144.3,4.9,145.2,5.7,145.2,6.8z"/>
</g>
<g>
	<path class="st0" d="M89.7,11.8c0,1-0.8,1.9-1.9,1.9c-1,0-1.9-0.8-1.9-1.9c0-1,0.8-1.9,1.9-1.9C88.8,9.9,89.7,10.8,89.7,11.8z"/>
</g>
<g>
	<path class="st0" d="M94.7,11.8c0,1-0.8,1.9-1.9,1.9c-1,0-1.9-0.8-1.9-1.9c0-1,0.8-1.9,1.9-1.9C93.9,9.9,94.7,10.8,94.7,11.8z"/>
</g>
<g>
	<path class="st0" d="M99.8,11.8c0,1-0.8,1.9-1.9,1.9c-1,0-1.9-0.8-1.9-1.9c0-1,0.8-1.9,1.9-1.9C98.9,9.9,99.8,10.8,99.8,11.8z"/>
</g>
<g>
	<path class="st0" d="M104.8,11.8c0,1-0.8,1.9-1.9,1.9c-1,0-1.9-0.8-1.9-1.9c0-1,0.8-1.9,1.9-1.9C104,9.9,104.8,10.8,104.8,11.8z"/>
</g>
<g>
	<path class="st0" d="M109.9,11.8c0,1-0.8,1.9-1.9,1.9c-1,0-1.9-0.8-1.9-1.9c0-1,0.8-1.9,1.9-1.9C109,9.9,109.9,10.8,109.9,11.8z"/>
</g>
<g>
	<path class="st0" d="M114.9,11.8c0,1-0.8,1.9-1.9,1.9c-1,0-1.9-0.8-1.9-1.9c0-1,0.8-1.9,1.9-1.9C114.1,9.9,114.9,10.8,114.9,11.8z"
		/>
</g>
<g>
	<path class="st0" d="M120,11.8c0,1-0.8,1.9-1.9,1.9c-1,0-1.9-0.8-1.9-1.9c0-1,0.8-1.9,1.9-1.9C119.1,9.9,120,10.8,120,11.8z"/>
</g>
<g>
	<path class="st0" d="M125,11.8c0,1-0.8,1.9-1.9,1.9c-1,0-1.9-0.8-1.9-1.9c0-1,0.8-1.9,1.9-1.9C124.2,9.9,125,10.8,125,11.8z"/>
</g>
<g>
	<path class="st0" d="M130,11.8c0,1-0.8,1.9-1.9,1.9c-1,0-1.9-0.8-1.9-1.9c0-1,0.8-1.9,1.9-1.9C129.2,9.9,130,10.8,130,11.8z"/>
</g>
<g>
	<circle class="st0" cx="77.7" cy="16.9" r="1.9"/>
</g>
<g>
	<path class="st0" d="M84.6,16.9c0,1-0.8,1.9-1.9,1.9c-1,0-1.9-0.8-1.9-1.9c0-1,0.8-1.9,1.9-1.9C83.8,15,84.6,15.8,84.6,16.9z"/>
</g>
<g>
	<circle class="st0" cx="87.8" cy="16.9" r="1.9"/>
</g>
<g>
	<path class="st0" d="M94.7,16.9c0,1-0.8,1.9-1.9,1.9c-1,0-1.9-0.8-1.9-1.9c0-1,0.8-1.9,1.9-1.9C93.9,15,94.7,15.8,94.7,16.9z"/>
</g>
<g>
	<path class="st0" d="M99.8,16.9c0,1-0.8,1.9-1.9,1.9c-1,0-1.9-0.8-1.9-1.9c0-1,0.8-1.9,1.9-1.9C98.9,15,99.8,15.8,99.8,16.9z"/>
</g>
<g>
	<circle class="st0" cx="102.9" cy="16.9" r="1.9"/>
</g>
<g>
	<path class="st0" d="M109.9,16.9c0,1-0.8,1.9-1.9,1.9c-1,0-1.9-0.8-1.9-1.9c0-1,0.8-1.9,1.9-1.9C109,15,109.9,15.8,109.9,16.9z"/>
</g>
<g>
	<circle class="st0" cx="113" cy="16.9" r="1.9"/>
</g>
<g>
	<path class="st0" d="M120,16.9c0,1-0.8,1.9-1.9,1.9c-1,0-1.9-0.8-1.9-1.9c0-1,0.8-1.9,1.9-1.9C119.1,15,120,15.8,120,16.9z"/>
</g>
<g>
	<path class="st0" d="M125,16.9c0,1-0.8,1.9-1.9,1.9c-1,0-1.9-0.8-1.9-1.9c0-1,0.8-1.9,1.9-1.9C124.2,15,125,15.8,125,16.9z"/>
</g>
<g>
	<circle class="st0" cx="128.2" cy="16.9" r="1.9"/>
</g>
<g>
	<path class="st0" d="M29.1,21.9c0,1-0.8,1.9-1.9,1.9s-1.9-0.8-1.9-1.9c0-1,0.8-1.9,1.9-1.9S29.1,20.9,29.1,21.9z"/>
</g>
<g>
	<path class="st0" d="M34.2,21.9c0,1-0.8,1.9-1.9,1.9c-1,0-1.9-0.8-1.9-1.9c0-1,0.8-1.9,1.9-1.9C33.3,20,34.2,20.9,34.2,21.9z"/>
</g>
<g>
	<path class="st0" d="M39.2,21.9c0,1-0.8,1.9-1.9,1.9c-1,0-1.9-0.8-1.9-1.9c0-1,0.8-1.9,1.9-1.9C38.4,20,39.2,20.9,39.2,21.9z"/>
</g>
<g>
	<path class="st0" d="M44.3,21.9c0,1-0.8,1.9-1.9,1.9c-1,0-1.9-0.8-1.9-1.9c0-1,0.8-1.9,1.9-1.9C43.4,20,44.3,20.9,44.3,21.9z"/>
</g>
<g>
	<path class="st0" d="M49.3,21.9c0,1-0.8,1.9-1.9,1.9c-1,0-1.9-0.8-1.9-1.9c0-1,0.8-1.9,1.9-1.9C48.5,20,49.3,20.9,49.3,21.9z"/>
</g>
<g>
	<path class="st0" d="M54.4,21.9c0,1-0.8,1.9-1.9,1.9c-1,0-1.9-0.8-1.9-1.9c0-1,0.8-1.9,1.9-1.9C53.5,20,54.4,20.9,54.4,21.9z"/>
</g>
<g>
	<path class="st0" d="M59.4,21.9c0,1-0.8,1.9-1.9,1.9c-1,0-1.9-0.8-1.9-1.9c0-1,0.8-1.9,1.9-1.9C58.6,20,59.4,20.9,59.4,21.9z"/>
</g>
<g>
	<path class="st0" d="M64.5,21.9c0,1-0.8,1.9-1.9,1.9c-1,0-1.9-0.8-1.9-1.9c0-1,0.8-1.9,1.9-1.9C63.6,20,64.5,20.9,64.5,21.9z"/>
</g>
<g>
	<path class="st0" d="M69.5,21.9c0,1-0.8,1.9-1.9,1.9c-1,0-1.9-0.8-1.9-1.9c0-1,0.8-1.9,1.9-1.9C68.7,20,69.5,20.9,69.5,21.9z"/>
</g>
<g>
	<path class="st0" d="M74.5,21.9c0,1-0.8,1.9-1.9,1.9c-1,0-1.9-0.8-1.9-1.9c0-1,0.8-1.9,1.9-1.9C73.7,20,74.5,20.9,74.5,21.9z"/>
</g>
<g>
	<path class="st0" d="M79.6,21.9c0,1-0.8,1.9-1.9,1.9c-1,0-1.9-0.8-1.9-1.9c0-1,0.8-1.9,1.9-1.9C78.7,20,79.6,20.9,79.6,21.9z"/>
</g>
<g>
	<path class="st0" d="M84.6,21.9c0,1-0.8,1.9-1.9,1.9c-1,0-1.9-0.8-1.9-1.9c0-1,0.8-1.9,1.9-1.9C83.8,20,84.6,20.9,84.6,21.9z"/>
</g>
<g>
	<path class="st0" d="M89.7,21.9c0,1-0.8,1.9-1.9,1.9c-1,0-1.9-0.8-1.9-1.9c0-1,0.8-1.9,1.9-1.9C88.8,20,89.7,20.9,89.7,21.9z"/>
</g>
<g>
	<path class="st0" d="M94.7,21.9c0,1-0.8,1.9-1.9,1.9c-1,0-1.9-0.8-1.9-1.9c0-1,0.8-1.9,1.9-1.9C93.9,20,94.7,20.9,94.7,21.9z"/>
</g>
<g>
	<path class="st0" d="M99.8,21.9c0,1-0.8,1.9-1.9,1.9c-1,0-1.9-0.8-1.9-1.9c0-1,0.8-1.9,1.9-1.9C98.9,20,99.8,20.9,99.8,21.9z"/>
</g>
<g>
	<path class="st0" d="M104.8,21.9c0,1-0.8,1.9-1.9,1.9c-1,0-1.9-0.8-1.9-1.9c0-1,0.8-1.9,1.9-1.9C104,20,104.8,20.9,104.8,21.9z"/>
</g>
<g>
	<path class="st0" d="M109.9,21.9c0,1-0.8,1.9-1.9,1.9c-1,0-1.9-0.8-1.9-1.9c0-1,0.8-1.9,1.9-1.9C109,20,109.9,20.9,109.9,21.9z"/>
</g>
<g>
	<path class="st0" d="M114.9,21.9c0,1-0.8,1.9-1.9,1.9c-1,0-1.9-0.8-1.9-1.9c0-1,0.8-1.9,1.9-1.9C114.1,20,114.9,20.9,114.9,21.9z"
		/>
</g>
<g>
	<path class="st0" d="M120,21.9c0,1-0.8,1.9-1.9,1.9c-1,0-1.9-0.8-1.9-1.9c0-1,0.8-1.9,1.9-1.9C119.1,20,120,20.9,120,21.9z"/>
</g>
<g>
	<path class="st0" d="M125,21.9c0,1-0.8,1.9-1.9,1.9c-1,0-1.9-0.8-1.9-1.9c0-1,0.8-1.9,1.9-1.9C124.2,20,125,20.9,125,21.9z"/>
</g>
<g>
	<path class="st0" d="M130,21.9c0,1-0.8,1.9-1.9,1.9c-1,0-1.9-0.8-1.9-1.9c0-1,0.8-1.9,1.9-1.9C129.2,20,130,20.9,130,21.9z"/>
</g>
<g>
	<path class="st0" d="M135.1,21.9c0,1-0.8,1.9-1.9,1.9c-1,0-1.9-0.8-1.9-1.9c0-1,0.8-1.9,1.9-1.9C134.2,20,135.1,20.9,135.1,21.9z"
		/>
</g>
<g>
	<circle class="st0" cx="17.1" cy="27" r="1.9"/>
</g>
<g>
	<path class="st0" d="M24.1,27c0,1-0.8,1.9-1.9,1.9S20.3,28,20.3,27c0-1,0.8-1.9,1.9-1.9S24.1,25.9,24.1,27z"/>
</g>
<g>
	<circle class="st0" cx="27.2" cy="27" r="1.9"/>
</g>
<g>
	<path class="st0" d="M34.2,27c0,1-0.8,1.9-1.9,1.9c-1,0-1.9-0.8-1.9-1.9c0-1,0.8-1.9,1.9-1.9C33.3,25.1,34.2,25.9,34.2,27z"/>
</g>
<g>
	<path class="st0" d="M39.2,27c0,1-0.8,1.9-1.9,1.9c-1,0-1.9-0.8-1.9-1.9c0-1,0.8-1.9,1.9-1.9C38.4,25.1,39.2,25.9,39.2,27z"/>
</g>
<g>
	<path class="st0" d="M44.3,27c0,1-0.8,1.9-1.9,1.9c-1,0-1.9-0.8-1.9-1.9c0-1,0.8-1.9,1.9-1.9C43.4,25.1,44.3,25.9,44.3,27z"/>
</g>
<g>
	<path class="st0" d="M49.3,27c0,1-0.8,1.9-1.9,1.9c-1,0-1.9-0.8-1.9-1.9c0-1,0.8-1.9,1.9-1.9C48.5,25.1,49.3,25.9,49.3,27z"/>
</g>
<g>
	<circle class="st0" cx="52.5" cy="27" r="1.9"/>
</g>
<g>
	<path class="st0" d="M59.4,27c0,1-0.8,1.9-1.9,1.9c-1,0-1.9-0.8-1.9-1.9c0-1,0.8-1.9,1.9-1.9C58.6,25.1,59.4,25.9,59.4,27z"/>
</g>
<g>
	<circle class="st0" cx="62.6" cy="27" r="1.9"/>
</g>
<g>
	<path class="st0" d="M69.5,27c0,1-0.8,1.9-1.9,1.9c-1,0-1.9-0.8-1.9-1.9c0-1,0.8-1.9,1.9-1.9C68.7,25.1,69.5,25.9,69.5,27z"/>
</g>
<g>
	<path class="st0" d="M74.5,27c0,1-0.8,1.9-1.9,1.9c-1,0-1.9-0.8-1.9-1.9c0-1,0.8-1.9,1.9-1.9C73.7,25.1,74.5,25.9,74.5,27z"/>
</g>
<g>
	<circle class="st0" cx="77.7" cy="27" r="1.9"/>
</g>
<g>
	<path class="st0" d="M84.6,27c0,1-0.8,1.9-1.9,1.9c-1,0-1.9-0.8-1.9-1.9c0-1,0.8-1.9,1.9-1.9C83.8,25.1,84.6,25.9,84.6,27z"/>
</g>
<g>
	<circle class="st0" cx="87.8" cy="27" r="1.9"/>
</g>
<g>
	<path class="st0" d="M94.7,27c0,1-0.8,1.9-1.9,1.9c-1,0-1.9-0.8-1.9-1.9c0-1,0.8-1.9,1.9-1.9C93.9,25.1,94.7,25.9,94.7,27z"/>
</g>
<g>
	<path class="st0" d="M99.8,27c0,1-0.8,1.9-1.9,1.9c-1,0-1.9-0.8-1.9-1.9c0-1,0.8-1.9,1.9-1.9C98.9,25.1,99.8,25.9,99.8,27z"/>
</g>
<g>
	<circle class="st0" cx="102.9" cy="27" r="1.9"/>
</g>
<g>
	<path class="st0" d="M109.9,27c0,1-0.8,1.9-1.9,1.9c-1,0-1.9-0.8-1.9-1.9c0-1,0.8-1.9,1.9-1.9C109,25.1,109.9,25.9,109.9,27z"/>
</g>
<g>
	<circle class="st0" cx="128.2" cy="27" r="1.9"/>
</g>
<g>
	<path class="st0" d="M135.1,27c0,1-0.8,1.9-1.9,1.9c-1,0-1.9-0.8-1.9-1.9c0-1,0.8-1.9,1.9-1.9C134.2,25.1,135.1,25.9,135.1,27z"/>
</g>
<g>
	<circle class="st0" cx="138.2" cy="27" r="1.9"/>
</g>
<g>
	<path class="st0" d="M8.9,32c0,1-0.8,1.9-1.9,1.9S5.2,33,5.2,32c0-1,0.8-1.9,1.9-1.9S8.9,31,8.9,32z"/>
</g>
<g>
	<path class="st0" d="M14,32c0,1-0.8,1.9-1.9,1.9c-1,0-1.9-0.8-1.9-1.9c0-1,0.8-1.9,1.9-1.9C13.1,30.1,14,31,14,32z"/>
</g>
<g>
	<path class="st0" d="M19,32c0,1-0.8,1.9-1.9,1.9c-1,0-1.9-0.8-1.9-1.9c0-1,0.8-1.9,1.9-1.9C18.2,30.1,19,31,19,32z"/>
</g>
<g>
	<path class="st0" d="M24.1,32c0,1-0.8,1.9-1.9,1.9S20.3,33,20.3,32c0-1,0.8-1.9,1.9-1.9S24.1,31,24.1,32z"/>
</g>
<g>
	<path class="st0" d="M29.1,32c0,1-0.8,1.9-1.9,1.9S25.3,33,25.3,32c0-1,0.8-1.9,1.9-1.9S29.1,31,29.1,32z"/>
</g>
<g>
	<path class="st0" d="M34.2,32c0,1-0.8,1.9-1.9,1.9c-1,0-1.9-0.8-1.9-1.9c0-1,0.8-1.9,1.9-1.9C33.3,30.1,34.2,31,34.2,32z"/>
</g>
<g>
	<path class="st0" d="M39.2,32c0,1-0.8,1.9-1.9,1.9c-1,0-1.9-0.8-1.9-1.9c0-1,0.8-1.9,1.9-1.9C38.4,30.1,39.2,31,39.2,32z"/>
</g>
<g>
	<path class="st0" d="M44.3,32c0,1-0.8,1.9-1.9,1.9c-1,0-1.9-0.8-1.9-1.9c0-1,0.8-1.9,1.9-1.9C43.4,30.1,44.3,31,44.3,32z"/>
</g>
<g>
	<path class="st0" d="M49.3,32c0,1-0.8,1.9-1.9,1.9c-1,0-1.9-0.8-1.9-1.9c0-1,0.8-1.9,1.9-1.9C48.5,30.1,49.3,31,49.3,32z"/>
</g>
<g>
	<path class="st0" d="M54.4,32c0,1-0.8,1.9-1.9,1.9c-1,0-1.9-0.8-1.9-1.9c0-1,0.8-1.9,1.9-1.9C53.5,30.1,54.4,31,54.4,32z"/>
</g>
<g>
	<path class="st0" d="M59.4,32c0,1-0.8,1.9-1.9,1.9c-1,0-1.9-0.8-1.9-1.9c0-1,0.8-1.9,1.9-1.9C58.6,30.1,59.4,31,59.4,32z"/>
</g>
<g>
	<path class="st0" d="M64.5,32c0,1-0.8,1.9-1.9,1.9c-1,0-1.9-0.8-1.9-1.9c0-1,0.8-1.9,1.9-1.9C63.6,30.1,64.5,31,64.5,32z"/>
</g>
<g>
	<path class="st0" d="M69.5,32c0,1-0.8,1.9-1.9,1.9c-1,0-1.9-0.8-1.9-1.9c0-1,0.8-1.9,1.9-1.9C68.7,30.1,69.5,31,69.5,32z"/>
</g>
<g>
	<path class="st0" d="M74.5,32c0,1-0.8,1.9-1.9,1.9c-1,0-1.9-0.8-1.9-1.9c0-1,0.8-1.9,1.9-1.9C73.7,30.1,74.5,31,74.5,32z"/>
</g>
<g>
	<path class="st0" d="M79.6,32c0,1-0.8,1.9-1.9,1.9c-1,0-1.9-0.8-1.9-1.9c0-1,0.8-1.9,1.9-1.9C78.7,30.1,79.6,31,79.6,32z"/>
</g>
<g>
	<path class="st0" d="M84.6,32c0,1-0.8,1.9-1.9,1.9c-1,0-1.9-0.8-1.9-1.9c0-1,0.8-1.9,1.9-1.9C83.8,30.1,84.6,31,84.6,32z"/>
</g>
<g>
	<path class="st0" d="M89.7,32c0,1-0.8,1.9-1.9,1.9c-1,0-1.9-0.8-1.9-1.9c0-1,0.8-1.9,1.9-1.9C88.8,30.1,89.7,31,89.7,32z"/>
</g>
<g>
	<path class="st0" d="M94.7,32c0,1-0.8,1.9-1.9,1.9c-1,0-1.9-0.8-1.9-1.9c0-1,0.8-1.9,1.9-1.9C93.9,30.1,94.7,31,94.7,32z"/>
</g>
<g>
	<path class="st0" d="M99.8,32c0,1-0.8,1.9-1.9,1.9c-1,0-1.9-0.8-1.9-1.9c0-1,0.8-1.9,1.9-1.9C98.9,30.1,99.8,31,99.8,32z"/>
</g>
<g>
	<path class="st0" d="M104.8,32c0,1-0.8,1.9-1.9,1.9c-1,0-1.9-0.8-1.9-1.9c0-1,0.8-1.9,1.9-1.9C104,30.1,104.8,31,104.8,32z"/>
</g>
<g>
	<path class="st0" d="M125,32c0,1-0.8,1.9-1.9,1.9c-1,0-1.9-0.8-1.9-1.9c0-1,0.8-1.9,1.9-1.9C124.2,30.1,125,31,125,32z"/>
</g>
<g>
	<path class="st0" d="M130,32c0,1-0.8,1.9-1.9,1.9c-1,0-1.9-0.8-1.9-1.9c0-1,0.8-1.9,1.9-1.9C129.2,30.1,130,31,130,32z"/>
</g>
<g>
	<path class="st0" d="M135.1,32c0,1-0.8,1.9-1.9,1.9c-1,0-1.9-0.8-1.9-1.9c0-1,0.8-1.9,1.9-1.9C134.2,30.1,135.1,31,135.1,32z"/>
</g>
<g>
	<circle class="st0" cx="7.1" cy="37" r="1.9"/>
</g>
<g>
	<circle class="st0" cx="12.1" cy="37" r="1.9"/>
</g>
<g>
	<circle class="st0" cx="17.1" cy="37" r="1.9"/>
</g>
<g>
	<path class="st0" d="M24.1,37c0,1-0.8,1.9-1.9,1.9s-1.9-0.8-1.9-1.9c0-1,0.8-1.9,1.9-1.9S24.1,36,24.1,37z"/>
</g>
<g>
	<circle class="st0" cx="27.2" cy="37" r="1.9"/>
</g>
<g>
	<path class="st0" d="M34.2,37c0,1-0.8,1.9-1.9,1.9c-1,0-1.9-0.8-1.9-1.9c0-1,0.8-1.9,1.9-1.9C33.3,35.2,34.2,36,34.2,37z"/>
</g>
<g>
	<path class="st0" d="M39.2,37c0,1-0.8,1.9-1.9,1.9c-1,0-1.9-0.8-1.9-1.9c0-1,0.8-1.9,1.9-1.9C38.4,35.2,39.2,36,39.2,37z"/>
</g>
<g>
	<path class="st0" d="M44.3,37c0,1-0.8,1.9-1.9,1.9c-1,0-1.9-0.8-1.9-1.9c0-1,0.8-1.9,1.9-1.9C43.4,35.2,44.3,36,44.3,37z"/>
</g>
<g>
	<path class="st0" d="M49.3,37c0,1-0.8,1.9-1.9,1.9c-1,0-1.9-0.8-1.9-1.9c0-1,0.8-1.9,1.9-1.9C48.5,35.2,49.3,36,49.3,37z"/>
</g>
<g>
	<circle class="st0" cx="52.5" cy="37" r="1.9"/>
</g>
<g>
	<path class="st0" d="M59.4,37c0,1-0.8,1.9-1.9,1.9c-1,0-1.9-0.8-1.9-1.9c0-1,0.8-1.9,1.9-1.9C58.6,35.2,59.4,36,59.4,37z"/>
</g>
<g>
	<circle class="st0" cx="62.6" cy="37" r="1.9"/>
</g>
<g>
	<path class="st0" d="M69.5,37c0,1-0.8,1.9-1.9,1.9c-1,0-1.9-0.8-1.9-1.9c0-1,0.8-1.9,1.9-1.9C68.7,35.2,69.5,36,69.5,37z"/>
</g>
<g>
	<path class="st0" d="M74.5,37c0,1-0.8,1.9-1.9,1.9c-1,0-1.9-0.8-1.9-1.9c0-1,0.8-1.9,1.9-1.9C73.7,35.2,74.5,36,74.5,37z"/>
</g>
<g>
	<circle class="st0" cx="77.7" cy="37" r="1.9"/>
</g>
<g>
	<path class="st0" d="M84.6,37c0,1-0.8,1.9-1.9,1.9c-1,0-1.9-0.8-1.9-1.9c0-1,0.8-1.9,1.9-1.9C83.8,35.2,84.6,36,84.6,37z"/>
</g>
<g>
	<circle class="st0" cx="87.8" cy="37" r="1.9"/>
</g>
<g>
	<path class="st0" d="M94.7,37c0,1-0.8,1.9-1.9,1.9c-1,0-1.9-0.8-1.9-1.9c0-1,0.8-1.9,1.9-1.9C93.9,35.2,94.7,36,94.7,37z"/>
</g>
<g>
	<path class="st0" d="M120,37c0,1-0.8,1.9-1.9,1.9c-1,0-1.9-0.8-1.9-1.9c0-1,0.8-1.9,1.9-1.9C119.1,35.2,120,36,120,37z"/>
</g>
<g>
	<path class="st0" d="M125,37c0,1-0.8,1.9-1.9,1.9c-1,0-1.9-0.8-1.9-1.9c0-1,0.8-1.9,1.9-1.9C124.2,35.2,125,36,125,37z"/>
</g>
<g>
	<circle class="st0" cx="128.2" cy="37" r="1.9"/>
</g>
<g>
	<path class="st0" d="M8.9,42.1c0,1-0.8,1.9-1.9,1.9s-1.9-0.8-1.9-1.9c0-1,0.8-1.9,1.9-1.9S8.9,41.1,8.9,42.1z"/>
</g>
<g>
	<path class="st0" d="M14,42.1c0,1-0.8,1.9-1.9,1.9c-1,0-1.9-0.8-1.9-1.9c0-1,0.8-1.9,1.9-1.9C13.1,40.2,14,41.1,14,42.1z"/>
</g>
<g>
	<path class="st0" d="M19,42.1c0,1-0.8,1.9-1.9,1.9c-1,0-1.9-0.8-1.9-1.9c0-1,0.8-1.9,1.9-1.9C18.2,40.2,19,41.1,19,42.1z"/>
</g>
<g>
	<path class="st0" d="M39.2,42.1c0,1-0.8,1.9-1.9,1.9c-1,0-1.9-0.8-1.9-1.9c0-1,0.8-1.9,1.9-1.9C38.4,40.2,39.2,41.1,39.2,42.1z"/>
</g>
<g>
	<path class="st0" d="M44.3,42.1c0,1-0.8,1.9-1.9,1.9c-1,0-1.9-0.8-1.9-1.9c0-1,0.8-1.9,1.9-1.9C43.4,40.2,44.3,41.1,44.3,42.1z"/>
</g>
<g>
	<path class="st0" d="M49.3,42.1c0,1-0.8,1.9-1.9,1.9c-1,0-1.9-0.8-1.9-1.9c0-1,0.8-1.9,1.9-1.9C48.5,40.2,49.3,41.1,49.3,42.1z"/>
</g>
<g>
	<path class="st0" d="M54.4,42.1c0,1-0.8,1.9-1.9,1.9c-1,0-1.9-0.8-1.9-1.9c0-1,0.8-1.9,1.9-1.9C53.5,40.2,54.4,41.1,54.4,42.1z"/>
</g>
<g>
	<path class="st0" d="M59.4,42.1c0,1-0.8,1.9-1.9,1.9c-1,0-1.9-0.8-1.9-1.9c0-1,0.8-1.9,1.9-1.9C58.6,40.2,59.4,41.1,59.4,42.1z"/>
</g>
<g>
	<path class="st0" d="M64.5,42.1c0,1-0.8,1.9-1.9,1.9c-1,0-1.9-0.8-1.9-1.9c0-1,0.8-1.9,1.9-1.9C63.6,40.2,64.5,41.1,64.5,42.1z"/>
</g>
<g>
	<path class="st0" d="M69.5,42.1c0,1-0.8,1.9-1.9,1.9c-1,0-1.9-0.8-1.9-1.9c0-1,0.8-1.9,1.9-1.9C68.7,40.2,69.5,41.1,69.5,42.1z"/>
</g>
<g>
	<path class="st0" d="M74.5,42.1c0,1-0.8,1.9-1.9,1.9c-1,0-1.9-0.8-1.9-1.9c0-1,0.8-1.9,1.9-1.9C73.7,40.2,74.5,41.1,74.5,42.1z"/>
</g>
<g>
	<path class="st0" d="M79.6,42.1c0,1-0.8,1.9-1.9,1.9c-1,0-1.9-0.8-1.9-1.9c0-1,0.8-1.9,1.9-1.9C78.7,40.2,79.6,41.1,79.6,42.1z"/>
</g>
<g>
	<path class="st0" d="M84.6,42.1c0,1-0.8,1.9-1.9,1.9c-1,0-1.9-0.8-1.9-1.9c0-1,0.8-1.9,1.9-1.9C83.8,40.2,84.6,41.1,84.6,42.1z"/>
</g>
<g>
	<path class="st0" d="M89.7,42.1c0,1-0.8,1.9-1.9,1.9c-1,0-1.9-0.8-1.9-1.9c0-1,0.8-1.9,1.9-1.9C88.8,40.2,89.7,41.1,89.7,42.1z"/>
</g>
<g>
	<path class="st0" d="M94.7,42.1c0,1-0.8,1.9-1.9,1.9c-1,0-1.9-0.8-1.9-1.9c0-1,0.8-1.9,1.9-1.9C93.9,40.2,94.7,41.1,94.7,42.1z"/>
</g>
<g>
	<path class="st0" d="M120,42.1c0,1-0.8,1.9-1.9,1.9c-1,0-1.9-0.8-1.9-1.9c0-1,0.8-1.9,1.9-1.9C119.1,40.2,120,41.1,120,42.1z"/>
</g>
<g>
	<path class="st0" d="M125,42.1c0,1-0.8,1.9-1.9,1.9c-1,0-1.9-0.8-1.9-1.9c0-1,0.8-1.9,1.9-1.9C124.2,40.2,125,41.1,125,42.1z"/>
</g>
<g>
	<path class="st0" d="M130,42.1c0,1-0.8,1.9-1.9,1.9c-1,0-1.9-0.8-1.9-1.9c0-1,0.8-1.9,1.9-1.9C129.2,40.2,130,41.1,130,42.1z"/>
</g>
<g>
	<path class="st0" d="M135.1,42.1c0,1-0.8,1.9-1.9,1.9c-1,0-1.9-0.8-1.9-1.9c0-1,0.8-1.9,1.9-1.9C134.2,40.2,135.1,41.1,135.1,42.1z
		"/>
</g>
<g>
	<path class="st0" d="M39.2,47.1c0,1-0.8,1.9-1.9,1.9c-1,0-1.9-0.8-1.9-1.9c0-1,0.8-1.9,1.9-1.9C38.4,45.2,39.2,46.1,39.2,47.1z"/>
</g>
<g>
	<path class="st0" d="M44.3,47.1c0,1-0.8,1.9-1.9,1.9c-1,0-1.9-0.8-1.9-1.9c0-1,0.8-1.9,1.9-1.9C43.4,45.2,44.3,46.1,44.3,47.1z"/>
</g>
<g>
	<path class="st0" d="M49.3,47.1c0,1-0.8,1.9-1.9,1.9c-1,0-1.9-0.8-1.9-1.9c0-1,0.8-1.9,1.9-1.9C48.5,45.2,49.3,46.1,49.3,47.1z"/>
</g>
<g>
	<circle class="st0" cx="52.5" cy="47.1" r="1.9"/>
</g>
<g>
	<path class="st0" d="M59.4,47.1c0,1-0.8,1.9-1.9,1.9c-1,0-1.9-0.8-1.9-1.9c0-1,0.8-1.9,1.9-1.9C58.6,45.2,59.4,46.1,59.4,47.1z"/>
</g>
<g>
	<circle class="st0" cx="62.6" cy="47.1" r="1.9"/>
</g>
<g>
	<path class="st0" d="M69.5,47.1c0,1-0.8,1.9-1.9,1.9c-1,0-1.9-0.8-1.9-1.9c0-1,0.8-1.9,1.9-1.9C68.7,45.2,69.5,46.1,69.5,47.1z"/>
</g>
<g>
	<path class="st0" d="M74.5,47.1c0,1-0.8,1.9-1.9,1.9c-1,0-1.9-0.8-1.9-1.9c0-1,0.8-1.9,1.9-1.9C73.7,45.2,74.5,46.1,74.5,47.1z"/>
</g>
<g>
	<circle class="st0" cx="77.7" cy="47.1" r="1.9"/>
</g>
<g>
	<path class="st0" d="M84.6,47.1c0,1-0.8,1.9-1.9,1.9c-1,0-1.9-0.8-1.9-1.9c0-1,0.8-1.9,1.9-1.9C83.8,45.2,84.6,46.1,84.6,47.1z"/>
</g>
<g>
	<circle class="st0" cx="87.8" cy="47.1" r="1.9"/>
</g>
<g>
	<path class="st0" d="M94.7,47.1c0,1-0.8,1.9-1.9,1.9c-1,0-1.9-0.8-1.9-1.9c0-1,0.8-1.9,1.9-1.9C93.9,45.2,94.7,46.1,94.7,47.1z"/>
</g>
<g>
	<path class="st0" d="M99.8,47.1c0,1-0.8,1.9-1.9,1.9c-1,0-1.9-0.8-1.9-1.9c0-1,0.8-1.9,1.9-1.9C98.9,45.2,99.8,46.1,99.8,47.1z"/>
</g>
<g>
	<circle class="st0" cx="102.9" cy="47.1" r="1.9"/>
</g>
<g>
	<path class="st0" d="M109.9,47.1c0,1-0.8,1.9-1.9,1.9c-1,0-1.9-0.8-1.9-1.9c0-1,0.8-1.9,1.9-1.9C109,45.2,109.9,46.1,109.9,47.1z"
		/>
</g>
<g>
	<circle class="st0" cx="113" cy="47.1" r="1.9"/>
</g>
<g>
	<path class="st0" d="M120,47.1c0,1-0.8,1.9-1.9,1.9c-1,0-1.9-0.8-1.9-1.9c0-1,0.8-1.9,1.9-1.9C119.1,45.2,120,46.1,120,47.1z"/>
</g>
<g>
	<path class="st0" d="M125,47.1c0,1-0.8,1.9-1.9,1.9c-1,0-1.9-0.8-1.9-1.9c0-1,0.8-1.9,1.9-1.9C124.2,45.2,125,46.1,125,47.1z"/>
</g>
<g>
	<circle class="st0" cx="128.2" cy="47.1" r="1.9"/>
</g>
<g>
	<path class="st0" d="M135.1,47.1c0,1-0.8,1.9-1.9,1.9c-1,0-1.9-0.8-1.9-1.9c0-1,0.8-1.9,1.9-1.9C134.2,45.2,135.1,46.1,135.1,47.1z
		"/>
</g>
<g>
	<circle class="st0" cx="138.2" cy="47.1" r="1.9"/>
</g>
<g>
	<path class="st0" d="M39.2,52.2c0,1-0.8,1.9-1.9,1.9c-1,0-1.9-0.8-1.9-1.9c0-1,0.8-1.9,1.9-1.9C38.4,50.3,39.2,51.1,39.2,52.2z"/>
</g>
<g>
	<path class="st0" d="M44.3,52.2c0,1-0.8,1.9-1.9,1.9c-1,0-1.9-0.8-1.9-1.9c0-1,0.8-1.9,1.9-1.9C43.4,50.3,44.3,51.1,44.3,52.2z"/>
</g>
<g>
	<path class="st0" d="M49.3,52.2c0,1-0.8,1.9-1.9,1.9c-1,0-1.9-0.8-1.9-1.9c0-1,0.8-1.9,1.9-1.9C48.5,50.3,49.3,51.1,49.3,52.2z"/>
</g>
<g>
	<path class="st0" d="M54.4,52.2c0,1-0.8,1.9-1.9,1.9c-1,0-1.9-0.8-1.9-1.9c0-1,0.8-1.9,1.9-1.9C53.5,50.3,54.4,51.1,54.4,52.2z"/>
</g>
<g>
	<path class="st0" d="M59.4,52.2c0,1-0.8,1.9-1.9,1.9c-1,0-1.9-0.8-1.9-1.9c0-1,0.8-1.9,1.9-1.9C58.6,50.3,59.4,51.1,59.4,52.2z"/>
</g>
<g>
	<path class="st0" d="M64.5,52.2c0,1-0.8,1.9-1.9,1.9c-1,0-1.9-0.8-1.9-1.9c0-1,0.8-1.9,1.9-1.9C63.6,50.3,64.5,51.1,64.5,52.2z"/>
</g>
<g>
	<path class="st0" d="M69.5,52.2c0,1-0.8,1.9-1.9,1.9c-1,0-1.9-0.8-1.9-1.9c0-1,0.8-1.9,1.9-1.9C68.7,50.3,69.5,51.1,69.5,52.2z"/>
</g>
<g>
	<path class="st0" d="M74.5,52.2c0,1-0.8,1.9-1.9,1.9c-1,0-1.9-0.8-1.9-1.9c0-1,0.8-1.9,1.9-1.9C73.7,50.3,74.5,51.1,74.5,52.2z"/>
</g>
<g>
	<path class="st0" d="M79.6,52.2c0,1-0.8,1.9-1.9,1.9c-1,0-1.9-0.8-1.9-1.9c0-1,0.8-1.9,1.9-1.9C78.7,50.3,79.6,51.1,79.6,52.2z"/>
</g>
<g>
	<path class="st0" d="M84.6,52.2c0,1-0.8,1.9-1.9,1.9c-1,0-1.9-0.8-1.9-1.9c0-1,0.8-1.9,1.9-1.9C83.8,50.3,84.6,51.1,84.6,52.2z"/>
</g>
<g>
	<path class="st0" d="M89.7,52.2c0,1-0.8,1.9-1.9,1.9c-1,0-1.9-0.8-1.9-1.9c0-1,0.8-1.9,1.9-1.9C88.8,50.3,89.7,51.1,89.7,52.2z"/>
</g>
<g>
	<path class="st0" d="M94.7,52.2c0,1-0.8,1.9-1.9,1.9c-1,0-1.9-0.8-1.9-1.9c0-1,0.8-1.9,1.9-1.9C93.9,50.3,94.7,51.1,94.7,52.2z"/>
</g>
<g>
	<path class="st0" d="M99.8,52.2c0,1-0.8,1.9-1.9,1.9c-1,0-1.9-0.8-1.9-1.9c0-1,0.8-1.9,1.9-1.9C98.9,50.3,99.8,51.1,99.8,52.2z"/>
</g>
<g>
	<path class="st0" d="M104.8,52.2c0,1-0.8,1.9-1.9,1.9c-1,0-1.9-0.8-1.9-1.9c0-1,0.8-1.9,1.9-1.9C104,50.3,104.8,51.1,104.8,52.2z"
		/>
</g>
<g>
	<path class="st0" d="M109.9,52.2c0,1-0.8,1.9-1.9,1.9c-1,0-1.9-0.8-1.9-1.9c0-1,0.8-1.9,1.9-1.9C109,50.3,109.9,51.1,109.9,52.2z"
		/>
</g>
<g>
	<path class="st0" d="M114.9,52.2c0,1-0.8,1.9-1.9,1.9c-1,0-1.9-0.8-1.9-1.9c0-1,0.8-1.9,1.9-1.9C114.1,50.3,114.9,51.1,114.9,52.2z
		"/>
</g>
<g>
	<path class="st0" d="M120,52.2c0,1-0.8,1.9-1.9,1.9c-1,0-1.9-0.8-1.9-1.9c0-1,0.8-1.9,1.9-1.9C119.1,50.3,120,51.1,120,52.2z"/>
</g>
<g>
	<path class="st0" d="M125,52.2c0,1-0.8,1.9-1.9,1.9c-1,0-1.9-0.8-1.9-1.9c0-1,0.8-1.9,1.9-1.9C124.2,50.3,125,51.1,125,52.2z"/>
</g>
<g>
	<path class="st0" d="M130,52.2c0,1-0.8,1.9-1.9,1.9c-1,0-1.9-0.8-1.9-1.9c0-1,0.8-1.9,1.9-1.9C129.2,50.3,130,51.1,130,52.2z"/>
</g>
<g>
	<path class="st0" d="M135.1,52.2c0,1-0.8,1.9-1.9,1.9c-1,0-1.9-0.8-1.9-1.9c0-1,0.8-1.9,1.9-1.9C134.2,50.3,135.1,51.1,135.1,52.2z
		"/>
</g>
<g>
	<path class="st0" d="M140.1,52.2c0,1-0.8,1.9-1.9,1.9c-1,0-1.9-0.8-1.9-1.9c0-1,0.8-1.9,1.9-1.9C139.3,50.3,140.1,51.1,140.1,52.2z
		"/>
</g>
<g>
	<path class="st0" d="M39.2,57.2c0,1-0.8,1.9-1.9,1.9c-1,0-1.9-0.8-1.9-1.9c0-1,0.8-1.9,1.9-1.9C38.4,55.3,39.2,56.2,39.2,57.2z"/>
</g>
<g>
	<path class="st0" d="M44.3,57.2c0,1-0.8,1.9-1.9,1.9c-1,0-1.9-0.8-1.9-1.9c0-1,0.8-1.9,1.9-1.9C43.4,55.3,44.3,56.2,44.3,57.2z"/>
</g>
<g>
	<path class="st0" d="M49.3,57.2c0,1-0.8,1.9-1.9,1.9c-1,0-1.9-0.8-1.9-1.9c0-1,0.8-1.9,1.9-1.9C48.5,55.3,49.3,56.2,49.3,57.2z"/>
</g>
<g>
	<circle class="st0" cx="52.5" cy="57.2" r="1.9"/>
</g>
<g>
	<path class="st0" d="M59.4,57.2c0,1-0.8,1.9-1.9,1.9c-1,0-1.9-0.8-1.9-1.9c0-1,0.8-1.9,1.9-1.9C58.6,55.3,59.4,56.2,59.4,57.2z"/>
</g>
<g>
	<circle class="st0" cx="62.6" cy="57.2" r="1.9"/>
</g>
<g>
	<path class="st0" d="M69.5,57.2c0,1-0.8,1.9-1.9,1.9c-1,0-1.9-0.8-1.9-1.9c0-1,0.8-1.9,1.9-1.9C68.7,55.3,69.5,56.2,69.5,57.2z"/>
</g>
<g>
	<path class="st0" d="M74.5,57.2c0,1-0.8,1.9-1.9,1.9c-1,0-1.9-0.8-1.9-1.9c0-1,0.8-1.9,1.9-1.9C73.7,55.3,74.5,56.2,74.5,57.2z"/>
</g>
<g>
	<circle class="st0" cx="77.7" cy="57.2" r="1.9"/>
</g>
<g>
	<path class="st0" d="M84.6,57.2c0,1-0.8,1.9-1.9,1.9c-1,0-1.9-0.8-1.9-1.9c0-1,0.8-1.9,1.9-1.9C83.8,55.3,84.6,56.2,84.6,57.2z"/>
</g>
<g>
	<circle class="st0" cx="87.8" cy="57.2" r="1.9"/>
</g>
<g>
	<path class="st0" d="M94.7,57.2c0,1-0.8,1.9-1.9,1.9c-1,0-1.9-0.8-1.9-1.9c0-1,0.8-1.9,1.9-1.9C93.9,55.3,94.7,56.2,94.7,57.2z"/>
</g>
<g>
	<path class="st0" d="M99.8,57.2c0,1-0.8,1.9-1.9,1.9c-1,0-1.9-0.8-1.9-1.9c0-1,0.8-1.9,1.9-1.9C98.9,55.3,99.8,56.2,99.8,57.2z"/>
</g>
<g>
	<circle class="st0" cx="102.9" cy="57.2" r="1.9"/>
</g>
<g>
	<path class="st0" d="M109.9,57.2c0,1-0.8,1.9-1.9,1.9c-1,0-1.9-0.8-1.9-1.9c0-1,0.8-1.9,1.9-1.9C109,55.3,109.9,56.2,109.9,57.2z"
		/>
</g>
<g>
	<circle class="st0" cx="113" cy="57.2" r="1.9"/>
</g>
<g>
	<path class="st0" d="M120,57.2c0,1-0.8,1.9-1.9,1.9c-1,0-1.9-0.8-1.9-1.9c0-1,0.8-1.9,1.9-1.9C119.1,55.3,120,56.2,120,57.2z"/>
</g>
<g>
	<path class="st0" d="M125,57.2c0,1-0.8,1.9-1.9,1.9c-1,0-1.9-0.8-1.9-1.9c0-1,0.8-1.9,1.9-1.9C124.2,55.3,125,56.2,125,57.2z"/>
</g>
<g>
	<path class="st0" d="M135.1,57.2c0,1-0.8,1.9-1.9,1.9c-1,0-1.9-0.8-1.9-1.9c0-1,0.8-1.9,1.9-1.9C134.2,55.3,135.1,56.2,135.1,57.2z
		"/>
</g>
<g>
	<circle class="st0" cx="138.2" cy="57.2" r="1.9"/>
</g>
<g>
	<path class="st0" d="M39.2,62.3c0,1-0.8,1.9-1.9,1.9c-1,0-1.9-0.8-1.9-1.9c0-1,0.8-1.9,1.9-1.9C38.4,60.4,39.2,61.2,39.2,62.3z"/>
</g>
<g>
	<path class="st0" d="M44.3,62.3c0,1-0.8,1.9-1.9,1.9c-1,0-1.9-0.8-1.9-1.9c0-1,0.8-1.9,1.9-1.9C43.4,60.4,44.3,61.2,44.3,62.3z"/>
</g>
<g>
	<path class="st0" d="M49.3,62.3c0,1-0.8,1.9-1.9,1.9c-1,0-1.9-0.8-1.9-1.9c0-1,0.8-1.9,1.9-1.9C48.5,60.4,49.3,61.2,49.3,62.3z"/>
</g>
<g>
	<path class="st0" d="M54.4,62.3c0,1-0.8,1.9-1.9,1.9c-1,0-1.9-0.8-1.9-1.9c0-1,0.8-1.9,1.9-1.9C53.5,60.4,54.4,61.2,54.4,62.3z"/>
</g>
<g>
	<path class="st0" d="M59.4,62.3c0,1-0.8,1.9-1.9,1.9c-1,0-1.9-0.8-1.9-1.9c0-1,0.8-1.9,1.9-1.9C58.6,60.4,59.4,61.2,59.4,62.3z"/>
</g>
<g>
	<path class="st0" d="M64.5,62.3c0,1-0.8,1.9-1.9,1.9c-1,0-1.9-0.8-1.9-1.9c0-1,0.8-1.9,1.9-1.9C63.6,60.4,64.5,61.2,64.5,62.3z"/>
</g>
<g>
	<path class="st0" d="M69.5,62.3c0,1-0.8,1.9-1.9,1.9c-1,0-1.9-0.8-1.9-1.9c0-1,0.8-1.9,1.9-1.9C68.7,60.4,69.5,61.2,69.5,62.3z"/>
</g>
<g>
	<path class="st0" d="M74.5,62.3c0,1-0.8,1.9-1.9,1.9c-1,0-1.9-0.8-1.9-1.9c0-1,0.8-1.9,1.9-1.9C73.7,60.4,74.5,61.2,74.5,62.3z"/>
</g>
<g>
	<path class="st0" d="M79.6,62.3c0,1-0.8,1.9-1.9,1.9c-1,0-1.9-0.8-1.9-1.9c0-1,0.8-1.9,1.9-1.9C78.7,60.4,79.6,61.2,79.6,62.3z"/>
</g>
<g>
	<path class="st0" d="M84.6,62.3c0,1-0.8,1.9-1.9,1.9c-1,0-1.9-0.8-1.9-1.9c0-1,0.8-1.9,1.9-1.9C83.8,60.4,84.6,61.2,84.6,62.3z"/>
</g>
<g>
	<path class="st0" d="M89.7,62.3c0,1-0.8,1.9-1.9,1.9c-1,0-1.9-0.8-1.9-1.9c0-1,0.8-1.9,1.9-1.9C88.8,60.4,89.7,61.2,89.7,62.3z"/>
</g>
<g>
	<path class="st0" d="M94.7,62.3c0,1-0.8,1.9-1.9,1.9c-1,0-1.9-0.8-1.9-1.9c0-1,0.8-1.9,1.9-1.9C93.9,60.4,94.7,61.2,94.7,62.3z"/>
</g>
<g>
	<path class="st0" d="M99.8,62.3c0,1-0.8,1.9-1.9,1.9c-1,0-1.9-0.8-1.9-1.9c0-1,0.8-1.9,1.9-1.9C98.9,60.4,99.8,61.2,99.8,62.3z"/>
</g>
<g>
	<path class="st0" d="M104.8,62.3c0,1-0.8,1.9-1.9,1.9c-1,0-1.9-0.8-1.9-1.9c0-1,0.8-1.9,1.9-1.9C104,60.4,104.8,61.2,104.8,62.3z"
		/>
</g>
<g>
	<path class="st0" d="M109.9,62.3c0,1-0.8,1.9-1.9,1.9c-1,0-1.9-0.8-1.9-1.9c0-1,0.8-1.9,1.9-1.9C109,60.4,109.9,61.2,109.9,62.3z"
		/>
</g>
<g>
	<path class="st0" d="M114.9,62.3c0,1-0.8,1.9-1.9,1.9c-1,0-1.9-0.8-1.9-1.9c0-1,0.8-1.9,1.9-1.9C114.1,60.4,114.9,61.2,114.9,62.3z
		"/>
</g>
<g>
	<path class="st0" d="M120,62.3c0,1-0.8,1.9-1.9,1.9c-1,0-1.9-0.8-1.9-1.9c0-1,0.8-1.9,1.9-1.9C119.1,60.4,120,61.2,120,62.3z"/>
</g>
<g>
	<path class="st0" d="M125,62.3c0,1-0.8,1.9-1.9,1.9c-1,0-1.9-0.8-1.9-1.9c0-1,0.8-1.9,1.9-1.9C124.2,60.4,125,61.2,125,62.3z"/>
</g>
<g>
	<path class="st0" d="M34.2,67.3c0,1-0.8,1.9-1.9,1.9c-1,0-1.9-0.8-1.9-1.9c0-1,0.8-1.9,1.9-1.9C33.3,65.4,34.2,66.3,34.2,67.3z"/>
</g>
<g>
	<path class="st0" d="M39.2,67.3c0,1-0.8,1.9-1.9,1.9c-1,0-1.9-0.8-1.9-1.9c0-1,0.8-1.9,1.9-1.9C38.4,65.4,39.2,66.3,39.2,67.3z"/>
</g>
<g>
	<path class="st0" d="M44.3,67.3c0,1-0.8,1.9-1.9,1.9c-1,0-1.9-0.8-1.9-1.9c0-1,0.8-1.9,1.9-1.9C43.4,65.4,44.3,66.3,44.3,67.3z"/>
</g>
<g>
	<path class="st0" d="M49.3,67.3c0,1-0.8,1.9-1.9,1.9c-1,0-1.9-0.8-1.9-1.9c0-1,0.8-1.9,1.9-1.9C48.5,65.4,49.3,66.3,49.3,67.3z"/>
</g>
<g>
	<circle class="st0" cx="52.5" cy="67.3" r="1.9"/>
</g>
<g>
	<path class="st0" d="M59.4,67.3c0,1-0.8,1.9-1.9,1.9c-1,0-1.9-0.8-1.9-1.9c0-1,0.8-1.9,1.9-1.9C58.6,65.4,59.4,66.3,59.4,67.3z"/>
</g>
<g>
	<circle class="st0" cx="62.6" cy="67.3" r="1.9"/>
</g>
<g>
	<path class="st0" d="M69.5,67.3c0,1-0.8,1.9-1.9,1.9c-1,0-1.9-0.8-1.9-1.9c0-1,0.8-1.9,1.9-1.9C68.7,65.4,69.5,66.3,69.5,67.3z"/>
</g>
<g>
	<path class="st0" d="M74.5,67.3c0,1-0.8,1.9-1.9,1.9c-1,0-1.9-0.8-1.9-1.9c0-1,0.8-1.9,1.9-1.9C73.7,65.4,74.5,66.3,74.5,67.3z"/>
</g>
<g>
	<circle class="st0" cx="77.7" cy="67.3" r="1.9"/>
</g>
<g>
	<path class="st0" d="M84.6,67.3c0,1-0.8,1.9-1.9,1.9c-1,0-1.9-0.8-1.9-1.9c0-1,0.8-1.9,1.9-1.9C83.8,65.4,84.6,66.3,84.6,67.3z"/>
</g>
<g>
	<circle class="st0" cx="87.8" cy="67.3" r="1.9"/>
</g>
<g>
	<path class="st0" d="M94.7,67.3c0,1-0.8,1.9-1.9,1.9c-1,0-1.9-0.8-1.9-1.9c0-1,0.8-1.9,1.9-1.9C93.9,65.4,94.7,66.3,94.7,67.3z"/>
</g>
<g>
	<path class="st0" d="M99.8,67.3c0,1-0.8,1.9-1.9,1.9c-1,0-1.9-0.8-1.9-1.9c0-1,0.8-1.9,1.9-1.9C98.9,65.4,99.8,66.3,99.8,67.3z"/>
</g>
<g>
	<circle class="st0" cx="102.9" cy="67.3" r="1.9"/>
</g>
<g>
	<path class="st0" d="M109.9,67.3c0,1-0.8,1.9-1.9,1.9c-1,0-1.9-0.8-1.9-1.9c0-1,0.8-1.9,1.9-1.9C109,65.4,109.9,66.3,109.9,67.3z"
		/>
</g>
<g>
	<path class="st0" d="M34.2,72.4c0,1-0.8,1.9-1.9,1.9c-1,0-1.9-0.8-1.9-1.9c0-1,0.8-1.9,1.9-1.9C33.3,70.5,34.2,71.3,34.2,72.4z"/>
</g>
<g>
	<path class="st0" d="M39.2,72.4c0,1-0.8,1.9-1.9,1.9c-1,0-1.9-0.8-1.9-1.9c0-1,0.8-1.9,1.9-1.9C38.4,70.5,39.2,71.3,39.2,72.4z"/>
</g>
<g>
	<path class="st0" d="M44.3,72.4c0,1-0.8,1.9-1.9,1.9c-1,0-1.9-0.8-1.9-1.9c0-1,0.8-1.9,1.9-1.9C43.4,70.5,44.3,71.3,44.3,72.4z"/>
</g>
<g>
	<path class="st0" d="M49.3,72.4c0,1-0.8,1.9-1.9,1.9c-1,0-1.9-0.8-1.9-1.9c0-1,0.8-1.9,1.9-1.9C48.5,70.5,49.3,71.3,49.3,72.4z"/>
</g>
<g>
	<path class="st0" d="M54.4,72.4c0,1-0.8,1.9-1.9,1.9c-1,0-1.9-0.8-1.9-1.9c0-1,0.8-1.9,1.9-1.9C53.5,70.5,54.4,71.3,54.4,72.4z"/>
</g>
<g>
	<path class="st0" d="M59.4,72.4c0,1-0.8,1.9-1.9,1.9c-1,0-1.9-0.8-1.9-1.9c0-1,0.8-1.9,1.9-1.9C58.6,70.5,59.4,71.3,59.4,72.4z"/>
</g>
<g>
	<path class="st0" d="M64.5,72.4c0,1-0.8,1.9-1.9,1.9c-1,0-1.9-0.8-1.9-1.9c0-1,0.8-1.9,1.9-1.9C63.6,70.5,64.5,71.3,64.5,72.4z"/>
</g>
<g>
	<path class="st0" d="M69.5,72.4c0,1-0.8,1.9-1.9,1.9c-1,0-1.9-0.8-1.9-1.9c0-1,0.8-1.9,1.9-1.9C68.7,70.5,69.5,71.3,69.5,72.4z"/>
</g>
<g>
	<path class="st0" d="M74.5,72.4c0,1-0.8,1.9-1.9,1.9c-1,0-1.9-0.8-1.9-1.9c0-1,0.8-1.9,1.9-1.9C73.7,70.5,74.5,71.3,74.5,72.4z"/>
</g>
<g>
	<path class="st0" d="M79.6,72.4c0,1-0.8,1.9-1.9,1.9c-1,0-1.9-0.8-1.9-1.9c0-1,0.8-1.9,1.9-1.9C78.7,70.5,79.6,71.3,79.6,72.4z"/>
</g>
<g>
	<path class="st0" d="M84.6,72.4c0,1-0.8,1.9-1.9,1.9c-1,0-1.9-0.8-1.9-1.9c0-1,0.8-1.9,1.9-1.9C83.8,70.5,84.6,71.3,84.6,72.4z"/>
</g>
<g>
	<path class="st0" d="M89.7,72.4c0,1-0.8,1.9-1.9,1.9c-1,0-1.9-0.8-1.9-1.9c0-1,0.8-1.9,1.9-1.9C88.8,70.5,89.7,71.3,89.7,72.4z"/>
</g>
<g>
	<path class="st0" d="M94.7,72.4c0,1-0.8,1.9-1.9,1.9c-1,0-1.9-0.8-1.9-1.9c0-1,0.8-1.9,1.9-1.9C93.9,70.5,94.7,71.3,94.7,72.4z"/>
</g>
<g>
	<path class="st0" d="M99.8,72.4c0,1-0.8,1.9-1.9,1.9c-1,0-1.9-0.8-1.9-1.9c0-1,0.8-1.9,1.9-1.9C98.9,70.5,99.8,71.3,99.8,72.4z"/>
</g>
<g>
	<path class="st0" d="M104.8,72.4c0,1-0.8,1.9-1.9,1.9c-1,0-1.9-0.8-1.9-1.9c0-1,0.8-1.9,1.9-1.9C104,70.5,104.8,71.3,104.8,72.4z"
		/>
</g>
<g>
	<path class="st0" d="M34.2,77.4c0,1-0.8,1.9-1.9,1.9c-1,0-1.9-0.8-1.9-1.9c0-1,0.8-1.9,1.9-1.9C33.3,75.5,34.2,76.4,34.2,77.4z"/>
</g>
<g>
	<path class="st0" d="M39.2,77.4c0,1-0.8,1.9-1.9,1.9c-1,0-1.9-0.8-1.9-1.9c0-1,0.8-1.9,1.9-1.9C38.4,75.5,39.2,76.4,39.2,77.4z"/>
</g>
<g>
	<path class="st0" d="M44.3,77.4c0,1-0.8,1.9-1.9,1.9c-1,0-1.9-0.8-1.9-1.9c0-1,0.8-1.9,1.9-1.9C43.4,75.5,44.3,76.4,44.3,77.4z"/>
</g>
<g>
	<path class="st0" d="M49.3,77.4c0,1-0.8,1.9-1.9,1.9c-1,0-1.9-0.8-1.9-1.9c0-1,0.8-1.9,1.9-1.9C48.5,75.5,49.3,76.4,49.3,77.4z"/>
</g>
<g>
	<path class="st0" d="M54.4,77.4c0,1-0.8,1.9-1.9,1.9c-1,0-1.9-0.8-1.9-1.9c0-1,0.8-1.9,1.9-1.9C53.5,75.5,54.4,76.4,54.4,77.4z"/>
</g>
<g>
	<path class="st0" d="M59.4,77.4c0,1-0.8,1.9-1.9,1.9c-1,0-1.9-0.8-1.9-1.9c0-1,0.8-1.9,1.9-1.9C58.6,75.5,59.4,76.4,59.4,77.4z"/>
</g>
<g>
	<path class="st0" d="M64.5,77.4c0,1-0.8,1.9-1.9,1.9c-1,0-1.9-0.8-1.9-1.9c0-1,0.8-1.9,1.9-1.9C63.6,75.5,64.5,76.4,64.5,77.4z"/>
</g>
<g>
	<path class="st0" d="M69.5,77.4c0,1-0.8,1.9-1.9,1.9c-1,0-1.9-0.8-1.9-1.9c0-1,0.8-1.9,1.9-1.9C68.7,75.5,69.5,76.4,69.5,77.4z"/>
</g>
<g>
	<path class="st0" d="M74.5,77.4c0,1-0.8,1.9-1.9,1.9c-1,0-1.9-0.8-1.9-1.9c0-1,0.8-1.9,1.9-1.9C73.7,75.5,74.5,76.4,74.5,77.4z"/>
</g>
<g>
	<path class="st0" d="M79.6,77.4c0,1-0.8,1.9-1.9,1.9c-1,0-1.9-0.8-1.9-1.9c0-1,0.8-1.9,1.9-1.9C78.7,75.5,79.6,76.4,79.6,77.4z"/>
</g>
<g>
	<path class="st0" d="M84.6,77.4c0,1-0.8,1.9-1.9,1.9c-1,0-1.9-0.8-1.9-1.9c0-1,0.8-1.9,1.9-1.9C83.8,75.5,84.6,76.4,84.6,77.4z"/>
</g>
<g>
	<path class="st0" d="M89.7,77.4c0,1-0.8,1.9-1.9,1.9c-1,0-1.9-0.8-1.9-1.9c0-1,0.8-1.9,1.9-1.9C88.8,75.5,89.7,76.4,89.7,77.4z"/>
</g>
<g>
	<path class="st0" d="M94.7,77.4c0,1-0.8,1.9-1.9,1.9c-1,0-1.9-0.8-1.9-1.9c0-1,0.8-1.9,1.9-1.9C93.9,75.5,94.7,76.4,94.7,77.4z"/>
</g>
<g>
	<path class="st0" d="M99.8,77.4c0,1-0.8,1.9-1.9,1.9c-1,0-1.9-0.8-1.9-1.9c0-1,0.8-1.9,1.9-1.9C98.9,75.5,99.8,76.4,99.8,77.4z"/>
</g>
<g>
	<path class="st0" d="M39.2,82.5c0,1-0.8,1.9-1.9,1.9c-1,0-1.9-0.8-1.9-1.9c0-1,0.8-1.9,1.9-1.9C38.4,80.6,39.2,81.4,39.2,82.5z"/>
</g>
<g>
	<path class="st0" d="M44.3,82.5c0,1-0.8,1.9-1.9,1.9c-1,0-1.9-0.8-1.9-1.9c0-1,0.8-1.9,1.9-1.9C43.4,80.6,44.3,81.4,44.3,82.5z"/>
</g>
<g>
	<path class="st0" d="M49.3,82.5c0,1-0.8,1.9-1.9,1.9c-1,0-1.9-0.8-1.9-1.9c0-1,0.8-1.9,1.9-1.9C48.5,80.6,49.3,81.4,49.3,82.5z"/>
</g>
<g>
	<path class="st0" d="M54.4,82.5c0,1-0.8,1.9-1.9,1.9c-1,0-1.9-0.8-1.9-1.9c0-1,0.8-1.9,1.9-1.9C53.5,80.6,54.4,81.4,54.4,82.5z"/>
</g>
<g>
	<path class="st0" d="M59.4,82.5c0,1-0.8,1.9-1.9,1.9c-1,0-1.9-0.8-1.9-1.9c0-1,0.8-1.9,1.9-1.9C58.6,80.6,59.4,81.4,59.4,82.5z"/>
</g>
<g>
	<path class="st0" d="M64.5,82.5c0,1-0.8,1.9-1.9,1.9c-1,0-1.9-0.8-1.9-1.9c0-1,0.8-1.9,1.9-1.9C63.6,80.6,64.5,81.4,64.5,82.5z"/>
</g>
<g>
	<path class="st0" d="M69.5,82.5c0,1-0.8,1.9-1.9,1.9c-1,0-1.9-0.8-1.9-1.9c0-1,0.8-1.9,1.9-1.9C68.7,80.6,69.5,81.4,69.5,82.5z"/>
</g>
<g>
	<path class="st0" d="M74.5,82.5c0,1-0.8,1.9-1.9,1.9c-1,0-1.9-0.8-1.9-1.9c0-1,0.8-1.9,1.9-1.9C73.7,80.6,74.5,81.4,74.5,82.5z"/>
</g>
<g>
	<path class="st0" d="M79.6,82.5c0,1-0.8,1.9-1.9,1.9c-1,0-1.9-0.8-1.9-1.9c0-1,0.8-1.9,1.9-1.9C78.7,80.6,79.6,81.4,79.6,82.5z"/>
</g>
<g>
	<path class="st0" d="M84.6,82.5c0,1-0.8,1.9-1.9,1.9c-1,0-1.9-0.8-1.9-1.9c0-1,0.8-1.9,1.9-1.9C83.8,80.6,84.6,81.4,84.6,82.5z"/>
</g>
<g>
	<path class="st0" d="M89.7,82.5c0,1-0.8,1.9-1.9,1.9c-1,0-1.9-0.8-1.9-1.9c0-1,0.8-1.9,1.9-1.9C88.8,80.6,89.7,81.4,89.7,82.5z"/>
</g>
<g>
	<path class="st0" d="M94.7,82.5c0,1-0.8,1.9-1.9,1.9c-1,0-1.9-0.8-1.9-1.9c0-1,0.8-1.9,1.9-1.9C93.9,80.6,94.7,81.4,94.7,82.5z"/>
</g>
<g>
	<path class="st0" d="M39.2,87.5c0,1-0.8,1.9-1.9,1.9c-1,0-1.9-0.8-1.9-1.9c0-1,0.8-1.9,1.9-1.9C38.4,85.6,39.2,86.5,39.2,87.5z"/>
</g>
<g>
	<path class="st0" d="M44.3,87.5c0,1-0.8,1.9-1.9,1.9c-1,0-1.9-0.8-1.9-1.9c0-1,0.8-1.9,1.9-1.9C43.4,85.6,44.3,86.5,44.3,87.5z"/>
</g>
<g>
	<path class="st0" d="M49.3,87.5c0,1-0.8,1.9-1.9,1.9c-1,0-1.9-0.8-1.9-1.9c0-1,0.8-1.9,1.9-1.9C48.5,85.6,49.3,86.5,49.3,87.5z"/>
</g>
<g>
	<path class="st0" d="M54.4,87.5c0,1-0.8,1.9-1.9,1.9c-1,0-1.9-0.8-1.9-1.9c0-1,0.8-1.9,1.9-1.9C53.5,85.6,54.4,86.5,54.4,87.5z"/>
</g>
<g>
	<path class="st0" d="M59.4,87.5c0,1-0.8,1.9-1.9,1.9c-1,0-1.9-0.8-1.9-1.9c0-1,0.8-1.9,1.9-1.9C58.6,85.6,59.4,86.5,59.4,87.5z"/>
</g>
<g>
	<path class="st0" d="M64.5,87.5c0,1-0.8,1.9-1.9,1.9c-1,0-1.9-0.8-1.9-1.9c0-1,0.8-1.9,1.9-1.9C63.6,85.6,64.5,86.5,64.5,87.5z"/>
</g>
<g>
	<path class="st0" d="M69.5,87.5c0,1-0.8,1.9-1.9,1.9c-1,0-1.9-0.8-1.9-1.9c0-1,0.8-1.9,1.9-1.9C68.7,85.6,69.5,86.5,69.5,87.5z"/>
</g>
<g>
	<path class="st0" d="M74.5,87.5c0,1-0.8,1.9-1.9,1.9c-1,0-1.9-0.8-1.9-1.9c0-1,0.8-1.9,1.9-1.9C73.7,85.6,74.5,86.5,74.5,87.5z"/>
</g>
<g>
	<path class="st0" d="M79.6,87.5c0,1-0.8,1.9-1.9,1.9c-1,0-1.9-0.8-1.9-1.9c0-1,0.8-1.9,1.9-1.9C78.7,85.6,79.6,86.5,79.6,87.5z"/>
</g>
<g>
	<path class="st0" d="M84.6,87.5c0,1-0.8,1.9-1.9,1.9c-1,0-1.9-0.8-1.9-1.9c0-1,0.8-1.9,1.9-1.9C83.8,85.6,84.6,86.5,84.6,87.5z"/>
</g>
<g>
	<path class="st0" d="M89.7,87.5c0,1-0.8,1.9-1.9,1.9c-1,0-1.9-0.8-1.9-1.9c0-1,0.8-1.9,1.9-1.9C88.8,85.6,89.7,86.5,89.7,87.5z"/>
</g>
<g>
	<path class="st0" d="M39.2,92.6c0,1-0.8,1.9-1.9,1.9c-1,0-1.9-0.8-1.9-1.9c0-1,0.8-1.9,1.9-1.9C38.4,90.7,39.2,91.5,39.2,92.6z"/>
</g>
<g>
	<path class="st0" d="M44.3,92.6c0,1-0.8,1.9-1.9,1.9c-1,0-1.9-0.8-1.9-1.9c0-1,0.8-1.9,1.9-1.9C43.4,90.7,44.3,91.5,44.3,92.6z"/>
</g>
<g>
	<path class="st0" d="M49.3,92.6c0,1-0.8,1.9-1.9,1.9c-1,0-1.9-0.8-1.9-1.9c0-1,0.8-1.9,1.9-1.9C48.5,90.7,49.3,91.5,49.3,92.6z"/>
</g>
<g>
	<path class="st0" d="M54.4,92.6c0,1-0.8,1.9-1.9,1.9c-1,0-1.9-0.8-1.9-1.9c0-1,0.8-1.9,1.9-1.9C53.5,90.7,54.4,91.5,54.4,92.6z"/>
</g>
<g>
	<path class="st0" d="M59.4,92.6c0,1-0.8,1.9-1.9,1.9c-1,0-1.9-0.8-1.9-1.9c0-1,0.8-1.9,1.9-1.9C58.6,90.7,59.4,91.5,59.4,92.6z"/>
</g>
<g>
	<path class="st0" d="M64.5,92.6c0,1-0.8,1.9-1.9,1.9c-1,0-1.9-0.8-1.9-1.9c0-1,0.8-1.9,1.9-1.9C63.6,90.7,64.5,91.5,64.5,92.6z"/>
</g>
<g>
	<path class="st0" d="M89.7,92.6c0,1-0.8,1.9-1.9,1.9c-1,0-1.9-0.8-1.9-1.9c0-1,0.8-1.9,1.9-1.9C88.8,90.7,89.7,91.5,89.7,92.6z"/>
</g>
<g>
	<path class="st0" d="M44.3,97.6c0,1-0.8,1.9-1.9,1.9c-1,0-1.9-0.8-1.9-1.9c0-1,0.8-1.9,1.9-1.9C43.4,95.7,44.3,96.6,44.3,97.6z"/>
</g>
<g>
	<path class="st0" d="M49.3,97.6c0,1-0.8,1.9-1.9,1.9c-1,0-1.9-0.8-1.9-1.9c0-1,0.8-1.9,1.9-1.9C48.5,95.7,49.3,96.6,49.3,97.6z"/>
</g>
<g>
	<path class="st0" d="M54.4,97.6c0,1-0.8,1.9-1.9,1.9c-1,0-1.9-0.8-1.9-1.9c0-1,0.8-1.9,1.9-1.9C53.5,95.7,54.4,96.6,54.4,97.6z"/>
</g>
<g>
	<path class="st0" d="M59.4,97.6c0,1-0.8,1.9-1.9,1.9c-1,0-1.9-0.8-1.9-1.9c0-1,0.8-1.9,1.9-1.9C58.6,95.7,59.4,96.6,59.4,97.6z"/>
</g>
<g>
	<path class="st0" d="M64.5,97.6c0,1-0.8,1.9-1.9,1.9c-1,0-1.9-0.8-1.9-1.9c0-1,0.8-1.9,1.9-1.9C63.6,95.7,64.5,96.6,64.5,97.6z"/>
</g>
<g>
	<path class="st0" d="M89.7,97.6c0,1-0.8,1.9-1.9,1.9c-1,0-1.9-0.8-1.9-1.9c0-1,0.8-1.9,1.9-1.9C88.8,95.7,89.7,96.6,89.7,97.6z"/>
</g>
<g>
	<path class="st0" d="M44.3,102.6c0,1-0.8,1.9-1.9,1.9c-1,0-1.9-0.8-1.9-1.9c0-1,0.8-1.9,1.9-1.9C43.4,100.8,44.3,101.6,44.3,102.6z
		"/>
</g>
<g>
	<path class="st0" d="M49.3,102.6c0,1-0.8,1.9-1.9,1.9c-1,0-1.9-0.8-1.9-1.9c0-1,0.8-1.9,1.9-1.9C48.5,100.8,49.3,101.6,49.3,102.6z
		"/>
</g>
<g>
	<circle class="st0" cx="52.5" cy="102.6" r="1.9"/>
</g>
<g>
	<path class="st0" d="M59.4,102.6c0,1-0.8,1.9-1.9,1.9c-1,0-1.9-0.8-1.9-1.9c0-1,0.8-1.9,1.9-1.9C58.6,100.8,59.4,101.6,59.4,102.6z
		"/>
</g>
<g>
	<path class="st0" d="M84.6,102.6c0,1-0.8,1.9-1.9,1.9c-1,0-1.9-0.8-1.9-1.9c0-1,0.8-1.9,1.9-1.9C83.8,100.8,84.6,101.6,84.6,102.6z
		"/>
</g>
<g>
	<circle class="st0" cx="87.8" cy="102.6" r="1.9"/>
</g>
<g>
	<path class="st0" d="M49.3,107.7c0,1-0.8,1.9-1.9,1.9c-1,0-1.9-0.8-1.9-1.9c0-1,0.8-1.9,1.9-1.9C48.5,105.8,49.3,106.6,49.3,107.7z
		"/>
</g>
<g>
	<path class="st0" d="M54.4,107.7c0,1-0.8,1.9-1.9,1.9c-1,0-1.9-0.8-1.9-1.9c0-1,0.8-1.9,1.9-1.9C53.5,105.8,54.4,106.6,54.4,107.7z
		"/>
</g>
<g>
	<path class="st0" d="M59.4,107.7c0,1-0.8,1.9-1.9,1.9c-1,0-1.9-0.8-1.9-1.9c0-1,0.8-1.9,1.9-1.9C58.6,105.8,59.4,106.6,59.4,107.7z
		"/>
</g>
<g>
	<path class="st0" d="M64.5,107.7c0,1-0.8,1.9-1.9,1.9c-1,0-1.9-0.8-1.9-1.9c0-1,0.8-1.9,1.9-1.9C63.6,105.8,64.5,106.6,64.5,107.7z
		"/>
</g>
<g>
	<path class="st0" d="M74.5,107.7c0,1-0.8,1.9-1.9,1.9c-1,0-1.9-0.8-1.9-1.9c0-1,0.8-1.9,1.9-1.9C73.7,105.8,74.5,106.6,74.5,107.7z
		"/>
</g>
<g>
	<path class="st0" d="M94.7,107.7c0,1-0.8,1.9-1.9,1.9c-1,0-1.9-0.8-1.9-1.9c0-1,0.8-1.9,1.9-1.9C93.9,105.8,94.7,106.6,94.7,107.7z
		"/>
</g>
<g>
	<path class="st0" d="M99.8,107.7c0,1-0.8,1.9-1.9,1.9c-1,0-1.9-0.8-1.9-1.9c0-1,0.8-1.9,1.9-1.9C98.9,105.8,99.8,106.6,99.8,107.7z
		"/>
</g>
<g>
	<path class="st0" d="M104.8,107.7c0,1-0.8,1.9-1.9,1.9c-1,0-1.9-0.8-1.9-1.9c0-1,0.8-1.9,1.9-1.9
		C104,105.8,104.8,106.6,104.8,107.7z"/>
</g>
<g>
	<circle class="st0" cx="52.5" cy="112.7" r="1.9"/>
</g>
<g>
	<path class="st0" d="M59.4,112.7c0,1-0.8,1.9-1.9,1.9c-1,0-1.9-0.8-1.9-1.9c0-1,0.8-1.9,1.9-1.9C58.6,110.8,59.4,111.7,59.4,112.7z
		"/>
</g>
<g>
	<circle class="st0" cx="62.6" cy="112.7" r="1.9"/>
</g>
<g>
	<path class="st0" d="M69.5,112.7c0,1-0.8,1.9-1.9,1.9c-1,0-1.9-0.8-1.9-1.9c0-1,0.8-1.9,1.9-1.9C68.7,110.8,69.5,111.7,69.5,112.7z
		"/>
</g>
<g>
	<path class="st0" d="M74.5,112.7c0,1-0.8,1.9-1.9,1.9c-1,0-1.9-0.8-1.9-1.9c0-1,0.8-1.9,1.9-1.9C73.7,110.8,74.5,111.7,74.5,112.7z
		"/>
</g>
<g>
	<path class="st0" d="M69.5,117.8c0,1-0.8,1.9-1.9,1.9c-1,0-1.9-0.8-1.9-1.9c0-1,0.8-1.9,1.9-1.9C68.7,115.9,69.5,116.7,69.5,117.8z
		"/>
</g>
<g>
	<path class="st0" d="M74.5,117.8c0,1-0.8,1.9-1.9,1.9c-1,0-1.9-0.8-1.9-1.9c0-1,0.8-1.9,1.9-1.9C73.7,115.9,74.5,116.7,74.5,117.8z
		"/>
</g>
<g>
	<path class="st0" d="M79.6,117.8c0,1-0.8,1.9-1.9,1.9c-1,0-1.9-0.8-1.9-1.9c0-1,0.8-1.9,1.9-1.9C78.7,115.9,79.6,116.7,79.6,117.8z
		"/>
</g>
<g>
	<circle class="st0" cx="77.7" cy="122.8" r="1.9"/>
</g>
<g>
	<path class="st0" d="M99.8,122.8c0,1-0.8,1.9-1.9,1.9c-1,0-1.9-0.8-1.9-1.9c0-1,0.8-1.9,1.9-1.9C98.9,120.9,99.8,121.8,99.8,122.8z
		"/>
</g>
<g>
	<path class="st0" d="M84.6,127.9c0,1-0.8,1.9-1.9,1.9c-1,0-1.9-0.8-1.9-1.9c0-1,0.8-1.9,1.9-1.9C83.8,126,84.6,126.8,84.6,127.9z"
		/>
</g>
<g>
	<path class="st0" d="M89.7,127.9c0,1-0.8,1.9-1.9,1.9c-1,0-1.9-0.8-1.9-1.9c0-1,0.8-1.9,1.9-1.9C88.8,126,89.7,126.8,89.7,127.9z"
		/>
</g>
<g>
	<path class="st0" d="M94.7,127.9c0,1-0.8,1.9-1.9,1.9c-1,0-1.9-0.8-1.9-1.9c0-1,0.8-1.9,1.9-1.9C93.9,126,94.7,126.8,94.7,127.9z"
		/>
</g>
<g>
	<path class="st0" d="M99.8,127.9c0,1-0.8,1.9-1.9,1.9c-1,0-1.9-0.8-1.9-1.9c0-1,0.8-1.9,1.9-1.9C98.9,126,99.8,126.8,99.8,127.9z"
		/>
</g>
<g>
	<path class="st0" d="M104.8,127.9c0,1-0.8,1.9-1.9,1.9c-1,0-1.9-0.8-1.9-1.9c0-1,0.8-1.9,1.9-1.9C104,126,104.8,126.8,104.8,127.9z
		"/>
</g>
<g>
	<path class="st0" d="M109.9,127.9c0,1-0.8,1.9-1.9,1.9c-1,0-1.9-0.8-1.9-1.9c0-1,0.8-1.9,1.9-1.9C109,126,109.9,126.8,109.9,127.9z
		"/>
</g>
<g>
	<path class="st0" d="M114.9,127.9c0,1-0.8,1.9-1.9,1.9c-1,0-1.9-0.8-1.9-1.9c0-1,0.8-1.9,1.9-1.9
		C114.1,126,114.9,126.8,114.9,127.9z"/>
</g>
<g>
	<path class="st0" d="M94.7,132.9c0,1-0.8,1.9-1.9,1.9c-1,0-1.9-0.8-1.9-1.9c0-1,0.8-1.9,1.9-1.9C93.9,131,94.7,131.9,94.7,132.9z"
		/>
</g>
<g>
	<path class="st0" d="M99.8,132.9c0,1-0.8,1.9-1.9,1.9c-1,0-1.9-0.8-1.9-1.9c0-1,0.8-1.9,1.9-1.9C98.9,131,99.8,131.9,99.8,132.9z"
		/>
</g>
<g>
	<circle class="st0" cx="102.9" cy="132.9" r="1.9"/>
</g>
<g>
	<path class="st0" d="M109.9,132.9c0,1-0.8,1.9-1.9,1.9c-1,0-1.9-0.8-1.9-1.9c0-1,0.8-1.9,1.9-1.9C109,131,109.9,131.9,109.9,132.9z
		"/>
</g>
<g>
	<circle class="st0" cx="113" cy="132.9" r="1.9"/>
</g>
<g>
	<path class="st0" d="M120,132.9c0,1-0.8,1.9-1.9,1.9c-1,0-1.9-0.8-1.9-1.9c0-1,0.8-1.9,1.9-1.9C119.1,131,120,131.9,120,132.9z"/>
</g>
<g>
	<path class="st0" d="M125,132.9c0,1-0.8,1.9-1.9,1.9c-1,0-1.9-0.8-1.9-1.9c0-1,0.8-1.9,1.9-1.9C124.2,131,125,131.9,125,132.9z"/>
</g>
<g>
	<path class="st0" d="M89.7,138c0,1-0.8,1.9-1.9,1.9c-1,0-1.9-0.8-1.9-1.9c0-1,0.8-1.9,1.9-1.9C88.8,136.1,89.7,136.9,89.7,138z"/>
</g>
<g>
	<path class="st0" d="M94.7,138c0,1-0.8,1.9-1.9,1.9c-1,0-1.9-0.8-1.9-1.9c0-1,0.8-1.9,1.9-1.9C93.9,136.1,94.7,136.9,94.7,138z"/>
</g>
<g>
	<path class="st0" d="M99.8,138c0,1-0.8,1.9-1.9,1.9c-1,0-1.9-0.8-1.9-1.9c0-1,0.8-1.9,1.9-1.9C98.9,136.1,99.8,136.9,99.8,138z"/>
</g>
<g>
	<path class="st0" d="M104.8,138c0,1-0.8,1.9-1.9,1.9c-1,0-1.9-0.8-1.9-1.9c0-1,0.8-1.9,1.9-1.9C104,136.1,104.8,136.9,104.8,138z"
		/>
</g>
<g>
	<path class="st0" d="M109.9,138c0,1-0.8,1.9-1.9,1.9c-1,0-1.9-0.8-1.9-1.9c0-1,0.8-1.9,1.9-1.9C109,136.1,109.9,136.9,109.9,138z"
		/>
</g>
<g>
	<path class="st0" d="M114.9,138c0,1-0.8,1.9-1.9,1.9c-1,0-1.9-0.8-1.9-1.9c0-1,0.8-1.9,1.9-1.9C114.1,136.1,114.9,136.9,114.9,138z
		"/>
</g>
<g>
	<path class="st0" d="M120,138c0,1-0.8,1.9-1.9,1.9c-1,0-1.9-0.8-1.9-1.9c0-1,0.8-1.9,1.9-1.9C119.1,136.1,120,136.9,120,138z"/>
</g>
<g>
	<path class="st0" d="M125,138c0,1-0.8,1.9-1.9,1.9c-1,0-1.9-0.8-1.9-1.9c0-1,0.8-1.9,1.9-1.9C124.2,136.1,125,136.9,125,138z"/>
</g>
<g>
	<path class="st0" d="M130,138c0,1-0.8,1.9-1.9,1.9c-1,0-1.9-0.8-1.9-1.9c0-1,0.8-1.9,1.9-1.9C129.2,136.1,130,136.9,130,138z"/>
</g>
<g>
	<circle class="st0" cx="87.8" cy="143" r="1.9"/>
</g>
<g>
	<path class="st0" d="M94.7,143c0,1-0.8,1.9-1.9,1.9c-1,0-1.9-0.8-1.9-1.9c0-1,0.8-1.9,1.9-1.9C93.9,141.1,94.7,142,94.7,143z"/>
</g>
<g>
	<path class="st0" d="M99.8,143c0,1-0.8,1.9-1.9,1.9c-1,0-1.9-0.8-1.9-1.9c0-1,0.8-1.9,1.9-1.9C98.9,141.1,99.8,142,99.8,143z"/>
</g>
<g>
	<circle class="st0" cx="102.9" cy="143" r="1.9"/>
</g>
<g>
	<path class="st0" d="M109.9,143c0,1-0.8,1.9-1.9,1.9c-1,0-1.9-0.8-1.9-1.9c0-1,0.8-1.9,1.9-1.9C109,141.1,109.9,142,109.9,143z"/>
</g>
<g>
	<circle class="st0" cx="113" cy="143" r="1.9"/>
</g>
<g>
	<path class="st0" d="M120,143c0,1-0.8,1.9-1.9,1.9c-1,0-1.9-0.8-1.9-1.9c0-1,0.8-1.9,1.9-1.9C119.1,141.1,120,142,120,143z"/>
</g>
<g>
	<path class="st0" d="M125,143c0,1-0.8,1.9-1.9,1.9c-1,0-1.9-0.8-1.9-1.9c0-1,0.8-1.9,1.9-1.9C124.2,141.1,125,142,125,143z"/>
</g>
<g>
	<circle class="st0" cx="128.2" cy="143" r="1.9"/>
</g>
<g>
	<path class="st0" d="M135.1,143c0,1-0.8,1.9-1.9,1.9c-1,0-1.9-0.8-1.9-1.9c0-1,0.8-1.9,1.9-1.9C134.2,141.1,135.1,142,135.1,143z"
		/>
</g>
<g>
	<path class="st0" d="M89.7,148.1c0,1-0.8,1.9-1.9,1.9c-1,0-1.9-0.8-1.9-1.9c0-1,0.8-1.9,1.9-1.9C88.8,146.2,89.7,147,89.7,148.1z"
		/>
</g>
<g>
	<path class="st0" d="M94.7,148.1c0,1-0.8,1.9-1.9,1.9c-1,0-1.9-0.8-1.9-1.9c0-1,0.8-1.9,1.9-1.9C93.9,146.2,94.7,147,94.7,148.1z"
		/>
</g>
<g>
	<path class="st0" d="M99.8,148.1c0,1-0.8,1.9-1.9,1.9c-1,0-1.9-0.8-1.9-1.9c0-1,0.8-1.9,1.9-1.9C98.9,146.2,99.8,147,99.8,148.1z"
		/>
</g>
<g>
	<path class="st0" d="M104.8,148.1c0,1-0.8,1.9-1.9,1.9c-1,0-1.9-0.8-1.9-1.9c0-1,0.8-1.9,1.9-1.9C104,146.2,104.8,147,104.8,148.1z
		"/>
</g>
<g>
	<path class="st0" d="M109.9,148.1c0,1-0.8,1.9-1.9,1.9c-1,0-1.9-0.8-1.9-1.9c0-1,0.8-1.9,1.9-1.9C109,146.2,109.9,147,109.9,148.1z
		"/>
</g>
<g>
	<path class="st0" d="M114.9,148.1c0,1-0.8,1.9-1.9,1.9c-1,0-1.9-0.8-1.9-1.9c0-1,0.8-1.9,1.9-1.9
		C114.1,146.2,114.9,147,114.9,148.1z"/>
</g>
<g>
	<path class="st0" d="M120,148.1c0,1-0.8,1.9-1.9,1.9c-1,0-1.9-0.8-1.9-1.9c0-1,0.8-1.9,1.9-1.9C119.1,146.2,120,147,120,148.1z"/>
</g>
<g>
	<path class="st0" d="M125,148.1c0,1-0.8,1.9-1.9,1.9c-1,0-1.9-0.8-1.9-1.9c0-1,0.8-1.9,1.9-1.9C124.2,146.2,125,147,125,148.1z"/>
</g>
<g>
	<path class="st0" d="M130,148.1c0,1-0.8,1.9-1.9,1.9c-1,0-1.9-0.8-1.9-1.9c0-1,0.8-1.9,1.9-1.9C129.2,146.2,130,147,130,148.1z"/>
</g>
<g>
	<path class="st0" d="M135.1,148.1c0,1-0.8,1.9-1.9,1.9c-1,0-1.9-0.8-1.9-1.9c0-1,0.8-1.9,1.9-1.9
		C134.2,146.2,135.1,147,135.1,148.1z"/>
</g>
<g>
	<path class="st0" d="M140.1,148.1c0,1-0.8,1.9-1.9,1.9c-1,0-1.9-0.8-1.9-1.9c0-1,0.8-1.9,1.9-1.9
		C139.3,146.2,140.1,147,140.1,148.1z"/>
</g>
<g>
	<path class="st0" d="M145.2,148.1c0,1-0.8,1.9-1.9,1.9c-1,0-1.9-0.8-1.9-1.9c0-1,0.8-1.9,1.9-1.9
		C144.3,146.2,145.2,147,145.2,148.1z"/>
</g>
<g>
	<path class="st0" d="M150.2,148.1c0,1-0.8,1.9-1.9,1.9c-1,0-1.9-0.8-1.9-1.9c0-1,0.8-1.9,1.9-1.9
		C149.4,146.2,150.2,147,150.2,148.1z"/>
</g>
<g>
	<circle class="st0" cx="87.8" cy="153.1" r="1.9"/>
</g>
<g>
	<path class="st0" d="M94.7,153.1c0,1-0.8,1.9-1.9,1.9c-1,0-1.9-0.8-1.9-1.9c0-1,0.8-1.9,1.9-1.9C93.9,151.2,94.7,152.1,94.7,153.1z
		"/>
</g>
<g>
	<path class="st0" d="M99.8,153.1c0,1-0.8,1.9-1.9,1.9c-1,0-1.9-0.8-1.9-1.9c0-1,0.8-1.9,1.9-1.9C98.9,151.2,99.8,152.1,99.8,153.1z
		"/>
</g>
<g>
	<circle class="st0" cx="102.9" cy="153.1" r="1.9"/>
</g>
<g>
	<path class="st0" d="M109.9,153.1c0,1-0.8,1.9-1.9,1.9c-1,0-1.9-0.8-1.9-1.9c0-1,0.8-1.9,1.9-1.9
		C109,151.2,109.9,152.1,109.9,153.1z"/>
</g>
<g>
	<circle class="st0" cx="113" cy="153.1" r="1.9"/>
</g>
<g>
	<path class="st0" d="M120,153.1c0,1-0.8,1.9-1.9,1.9c-1,0-1.9-0.8-1.9-1.9c0-1,0.8-1.9,1.9-1.9C119.1,151.2,120,152.1,120,153.1z"
		/>
</g>
<g>
	<path class="st0" d="M125,153.1c0,1-0.8,1.9-1.9,1.9c-1,0-1.9-0.8-1.9-1.9c0-1,0.8-1.9,1.9-1.9C124.2,151.2,125,152.1,125,153.1z"
		/>
</g>
<g>
	<circle class="st0" cx="128.2" cy="153.1" r="1.9"/>
</g>
<g>
	<path class="st0" d="M135.1,153.1c0,1-0.8,1.9-1.9,1.9c-1,0-1.9-0.8-1.9-1.9c0-1,0.8-1.9,1.9-1.9
		C134.2,151.2,135.1,152.1,135.1,153.1z"/>
</g>
<g>
	<circle class="st0" cx="138.2" cy="153.1" r="1.9"/>
</g>
<g>
	<path class="st0" d="M145.2,153.1c0,1-0.8,1.9-1.9,1.9c-1,0-1.9-0.8-1.9-1.9c0-1,0.8-1.9,1.9-1.9
		C144.3,151.2,145.2,152.1,145.2,153.1z"/>
</g>
<g>
	<path class="st0" d="M150.2,153.1c0,1-0.8,1.9-1.9,1.9c-1,0-1.9-0.8-1.9-1.9c0-1,0.8-1.9,1.9-1.9
		C149.4,151.2,150.2,152.1,150.2,153.1z"/>
</g>
<g>
	<path class="st0" d="M155.3,153.1c0,1-0.8,1.9-1.9,1.9c-1,0-1.9-0.8-1.9-1.9c0-1,0.8-1.9,1.9-1.9
		C154.4,151.2,155.3,152.1,155.3,153.1z"/>
</g>
<g>
	<path class="st0" d="M89.7,158.2c0,1-0.8,1.9-1.9,1.9c-1,0-1.9-0.8-1.9-1.9c0-1,0.8-1.9,1.9-1.9C88.8,156.3,89.7,157.1,89.7,158.2z
		"/>
</g>
<g>
	<path class="st0" d="M94.7,158.2c0,1-0.8,1.9-1.9,1.9c-1,0-1.9-0.8-1.9-1.9c0-1,0.8-1.9,1.9-1.9C93.9,156.3,94.7,157.1,94.7,158.2z
		"/>
</g>
<g>
	<path class="st0" d="M99.8,158.2c0,1-0.8,1.9-1.9,1.9c-1,0-1.9-0.8-1.9-1.9c0-1,0.8-1.9,1.9-1.9C98.9,156.3,99.8,157.1,99.8,158.2z
		"/>
</g>
<g>
	<path class="st0" d="M104.8,158.2c0,1-0.8,1.9-1.9,1.9c-1,0-1.9-0.8-1.9-1.9c0-1,0.8-1.9,1.9-1.9
		C104,156.3,104.8,157.1,104.8,158.2z"/>
</g>
<g>
	<path class="st0" d="M109.9,158.2c0,1-0.8,1.9-1.9,1.9c-1,0-1.9-0.8-1.9-1.9c0-1,0.8-1.9,1.9-1.9
		C109,156.3,109.9,157.1,109.9,158.2z"/>
</g>
<g>
	<path class="st0" d="M114.9,158.2c0,1-0.8,1.9-1.9,1.9c-1,0-1.9-0.8-1.9-1.9c0-1,0.8-1.9,1.9-1.9
		C114.1,156.3,114.9,157.1,114.9,158.2z"/>
</g>
<g>
	<path class="st0" d="M120,158.2c0,1-0.8,1.9-1.9,1.9c-1,0-1.9-0.8-1.9-1.9c0-1,0.8-1.9,1.9-1.9C119.1,156.3,120,157.1,120,158.2z"
		/>
</g>
<g>
	<path class="st0" d="M125,158.2c0,1-0.8,1.9-1.9,1.9c-1,0-1.9-0.8-1.9-1.9c0-1,0.8-1.9,1.9-1.9C124.2,156.3,125,157.1,125,158.2z"
		/>
</g>
<g>
	<path class="st0" d="M130,158.2c0,1-0.8,1.9-1.9,1.9c-1,0-1.9-0.8-1.9-1.9c0-1,0.8-1.9,1.9-1.9C129.2,156.3,130,157.1,130,158.2z"
		/>
</g>
<g>
	<path class="st0" d="M135.1,158.2c0,1-0.8,1.9-1.9,1.9c-1,0-1.9-0.8-1.9-1.9c0-1,0.8-1.9,1.9-1.9
		C134.2,156.3,135.1,157.1,135.1,158.2z"/>
</g>
<g>
	<path class="st0" d="M140.1,158.2c0,1-0.8,1.9-1.9,1.9c-1,0-1.9-0.8-1.9-1.9c0-1,0.8-1.9,1.9-1.9
		C139.3,156.3,140.1,157.1,140.1,158.2z"/>
</g>
<g>
	<path class="st0" d="M145.2,158.2c0,1-0.8,1.9-1.9,1.9c-1,0-1.9-0.8-1.9-1.9c0-1,0.8-1.9,1.9-1.9
		C144.3,156.3,145.2,157.1,145.2,158.2z"/>
</g>
<g>
	<path class="st0" d="M150.2,158.2c0,1-0.8,1.9-1.9,1.9c-1,0-1.9-0.8-1.9-1.9c0-1,0.8-1.9,1.9-1.9
		C149.4,156.3,150.2,157.1,150.2,158.2z"/>
</g>
<g>
	<path class="st0" d="M155.3,158.2c0,1-0.8,1.9-1.9,1.9c-1,0-1.9-0.8-1.9-1.9c0-1,0.8-1.9,1.9-1.9
		C154.4,156.3,155.3,157.1,155.3,158.2z"/>
</g>
<g>
	<path class="st0" d="M94.7,163.2c0,1-0.8,1.9-1.9,1.9c-1,0-1.9-0.8-1.9-1.9c0-1,0.8-1.9,1.9-1.9C93.9,161.3,94.7,162.2,94.7,163.2z
		"/>
</g>
<g>
	<path class="st0" d="M99.8,163.2c0,1-0.8,1.9-1.9,1.9c-1,0-1.9-0.8-1.9-1.9c0-1,0.8-1.9,1.9-1.9C98.9,161.3,99.8,162.2,99.8,163.2z
		"/>
</g>
<g>
	<circle class="st0" cx="102.9" cy="163.2" r="1.9"/>
</g>
<g>
	<path class="st0" d="M109.9,163.2c0,1-0.8,1.9-1.9,1.9c-1,0-1.9-0.8-1.9-1.9c0-1,0.8-1.9,1.9-1.9
		C109,161.3,109.9,162.2,109.9,163.2z"/>
</g>
<g>
	<circle class="st0" cx="113" cy="163.2" r="1.9"/>
</g>
<g>
	<path class="st0" d="M120,163.2c0,1-0.8,1.9-1.9,1.9c-1,0-1.9-0.8-1.9-1.9c0-1,0.8-1.9,1.9-1.9C119.1,161.3,120,162.2,120,163.2z"
		/>
</g>
<g>
	<path class="st0" d="M125,163.2c0,1-0.8,1.9-1.9,1.9c-1,0-1.9-0.8-1.9-1.9c0-1,0.8-1.9,1.9-1.9C124.2,161.3,125,162.2,125,163.2z"
		/>
</g>
<g>
	<circle class="st0" cx="128.2" cy="163.2" r="1.9"/>
</g>
<g>
	<path class="st0" d="M135.1,163.2c0,1-0.8,1.9-1.9,1.9c-1,0-1.9-0.8-1.9-1.9c0-1,0.8-1.9,1.9-1.9
		C134.2,161.3,135.1,162.2,135.1,163.2z"/>
</g>
<g>
	<circle class="st0" cx="138.2" cy="163.2" r="1.9"/>
</g>
<g>
	<path class="st0" d="M145.2,163.2c0,1-0.8,1.9-1.9,1.9c-1,0-1.9-0.8-1.9-1.9c0-1,0.8-1.9,1.9-1.9
		C144.3,161.3,145.2,162.2,145.2,163.2z"/>
</g>
<g>
	<path class="st0" d="M150.2,163.2c0,1-0.8,1.9-1.9,1.9c-1,0-1.9-0.8-1.9-1.9c0-1,0.8-1.9,1.9-1.9
		C149.4,161.3,150.2,162.2,150.2,163.2z"/>
</g>
<g>
	<path class="st0" d="M155.3,163.2c0,1-0.8,1.9-1.9,1.9c-1,0-1.9-0.8-1.9-1.9c0-1,0.8-1.9,1.9-1.9
		C154.4,161.3,155.3,162.2,155.3,163.2z"/>
</g>
<g>
	<path class="st0" d="M94.7,168.2c0,1-0.8,1.9-1.9,1.9c-1,0-1.9-0.8-1.9-1.9c0-1,0.8-1.9,1.9-1.9C93.9,166.4,94.7,167.2,94.7,168.2z
		"/>
</g>
<g>
	<path class="st0" d="M99.8,168.2c0,1-0.8,1.9-1.9,1.9c-1,0-1.9-0.8-1.9-1.9c0-1,0.8-1.9,1.9-1.9C98.9,166.4,99.8,167.2,99.8,168.2z
		"/>
</g>
<g>
	<path class="st0" d="M104.8,168.2c0,1-0.8,1.9-1.9,1.9c-1,0-1.9-0.8-1.9-1.9c0-1,0.8-1.9,1.9-1.9
		C104,166.4,104.8,167.2,104.8,168.2z"/>
</g>
<g>
	<path class="st0" d="M109.9,168.2c0,1-0.8,1.9-1.9,1.9c-1,0-1.9-0.8-1.9-1.9c0-1,0.8-1.9,1.9-1.9
		C109,166.4,109.9,167.2,109.9,168.2z"/>
</g>
<g>
	<path class="st0" d="M114.9,168.2c0,1-0.8,1.9-1.9,1.9c-1,0-1.9-0.8-1.9-1.9c0-1,0.8-1.9,1.9-1.9
		C114.1,166.4,114.9,167.2,114.9,168.2z"/>
</g>
<g>
	<path class="st0" d="M120,168.2c0,1-0.8,1.9-1.9,1.9c-1,0-1.9-0.8-1.9-1.9c0-1,0.8-1.9,1.9-1.9C119.1,166.4,120,167.2,120,168.2z"
		/>
</g>
<g>
	<path class="st0" d="M125,168.2c0,1-0.8,1.9-1.9,1.9c-1,0-1.9-0.8-1.9-1.9c0-1,0.8-1.9,1.9-1.9C124.2,166.4,125,167.2,125,168.2z"
		/>
</g>
<g>
	<path class="st0" d="M130,168.2c0,1-0.8,1.9-1.9,1.9c-1,0-1.9-0.8-1.9-1.9c0-1,0.8-1.9,1.9-1.9C129.2,166.4,130,167.2,130,168.2z"
		/>
</g>
<g>
	<path class="st0" d="M135.1,168.2c0,1-0.8,1.9-1.9,1.9c-1,0-1.9-0.8-1.9-1.9c0-1,0.8-1.9,1.9-1.9
		C134.2,166.4,135.1,167.2,135.1,168.2z"/>
</g>
<g>
	<path class="st0" d="M140.1,168.2c0,1-0.8,1.9-1.9,1.9c-1,0-1.9-0.8-1.9-1.9c0-1,0.8-1.9,1.9-1.9
		C139.3,166.4,140.1,167.2,140.1,168.2z"/>
</g>
<g>
	<path class="st0" d="M145.2,168.2c0,1-0.8,1.9-1.9,1.9c-1,0-1.9-0.8-1.9-1.9c0-1,0.8-1.9,1.9-1.9
		C144.3,166.4,145.2,167.2,145.2,168.2z"/>
</g>
<g>
	<path class="st0" d="M150.2,168.2c0,1-0.8,1.9-1.9,1.9c-1,0-1.9-0.8-1.9-1.9c0-1,0.8-1.9,1.9-1.9
		C149.4,166.4,150.2,167.2,150.2,168.2z"/>
</g>
<g>
	<path class="st0" d="M104.8,173.3c0,1-0.8,1.9-1.9,1.9c-1,0-1.9-0.8-1.9-1.9c0-1,0.8-1.9,1.9-1.9
		C104,171.4,104.8,172.2,104.8,173.3z"/>
</g>
<g>
	<path class="st0" d="M109.9,173.3c0,1-0.8,1.9-1.9,1.9c-1,0-1.9-0.8-1.9-1.9c0-1,0.8-1.9,1.9-1.9
		C109,171.4,109.9,172.2,109.9,173.3z"/>
</g>
<g>
	<path class="st0" d="M114.9,173.3c0,1-0.8,1.9-1.9,1.9c-1,0-1.9-0.8-1.9-1.9c0-1,0.8-1.9,1.9-1.9
		C114.1,171.4,114.9,172.2,114.9,173.3z"/>
</g>
<g>
	<path class="st0" d="M120,173.3c0,1-0.8,1.9-1.9,1.9c-1,0-1.9-0.8-1.9-1.9c0-1,0.8-1.9,1.9-1.9C119.1,171.4,120,172.2,120,173.3z"
		/>
</g>
<g>
	<path class="st0" d="M125,173.3c0,1-0.8,1.9-1.9,1.9c-1,0-1.9-0.8-1.9-1.9c0-1,0.8-1.9,1.9-1.9C124.2,171.4,125,172.2,125,173.3z"
		/>
</g>
<g>
	<path class="st0" d="M130,173.3c0,1-0.8,1.9-1.9,1.9c-1,0-1.9-0.8-1.9-1.9c0-1,0.8-1.9,1.9-1.9C129.2,171.4,130,172.2,130,173.3z"
		/>
</g>
<g>
	<path class="st0" d="M135.1,173.3c0,1-0.8,1.9-1.9,1.9c-1,0-1.9-0.8-1.9-1.9c0-1,0.8-1.9,1.9-1.9
		C134.2,171.4,135.1,172.2,135.1,173.3z"/>
</g>
<g>
	<path class="st0" d="M140.1,173.3c0,1-0.8,1.9-1.9,1.9c-1,0-1.9-0.8-1.9-1.9c0-1,0.8-1.9,1.9-1.9
		C139.3,171.4,140.1,172.2,140.1,173.3z"/>
</g>
<g>
	<path class="st0" d="M145.2,173.3c0,1-0.8,1.9-1.9,1.9c-1,0-1.9-0.8-1.9-1.9c0-1,0.8-1.9,1.9-1.9
		C144.3,171.4,145.2,172.2,145.2,173.3z"/>
</g>
<g>
	<path class="st0" d="M150.2,173.3c0,1-0.8,1.9-1.9,1.9c-1,0-1.9-0.8-1.9-1.9c0-1,0.8-1.9,1.9-1.9
		C149.4,171.4,150.2,172.2,150.2,173.3z"/>
</g>
<g>
	<path class="st0" d="M104.8,178.3c0,1-0.8,1.9-1.9,1.9c-1,0-1.9-0.8-1.9-1.9c0-1,0.8-1.9,1.9-1.9
		C104,176.4,104.8,177.3,104.8,178.3z"/>
</g>
<g>
	<path class="st0" d="M109.9,178.3c0,1-0.8,1.9-1.9,1.9c-1,0-1.9-0.8-1.9-1.9c0-1,0.8-1.9,1.9-1.9
		C109,176.4,109.9,177.3,109.9,178.3z"/>
</g>
<g>
	<path class="st0" d="M114.9,178.3c0,1-0.8,1.9-1.9,1.9c-1,0-1.9-0.8-1.9-1.9c0-1,0.8-1.9,1.9-1.9
		C114.1,176.4,114.9,177.3,114.9,178.3z"/>
</g>
<g>
	<path class="st0" d="M120,178.3c0,1-0.8,1.9-1.9,1.9c-1,0-1.9-0.8-1.9-1.9c0-1,0.8-1.9,1.9-1.9C119.1,176.4,120,177.3,120,178.3z"
		/>
</g>
<g>
	<path class="st0" d="M125,178.3c0,1-0.8,1.9-1.9,1.9c-1,0-1.9-0.8-1.9-1.9c0-1,0.8-1.9,1.9-1.9C124.2,176.4,125,177.3,125,178.3z"
		/>
</g>
<g>
	<path class="st0" d="M130,178.3c0,1-0.8,1.9-1.9,1.9c-1,0-1.9-0.8-1.9-1.9c0-1,0.8-1.9,1.9-1.9C129.2,176.4,130,177.3,130,178.3z"
		/>
</g>
<g>
	<path class="st0" d="M135.1,178.3c0,1-0.8,1.9-1.9,1.9c-1,0-1.9-0.8-1.9-1.9c0-1,0.8-1.9,1.9-1.9
		C134.2,176.4,135.1,177.3,135.1,178.3z"/>
</g>
<g>
	<path class="st0" d="M140.1,178.3c0,1-0.8,1.9-1.9,1.9c-1,0-1.9-0.8-1.9-1.9c0-1,0.8-1.9,1.9-1.9
		C139.3,176.4,140.1,177.3,140.1,178.3z"/>
</g>
<g>
	<path class="st0" d="M145.2,178.3c0,1-0.8,1.9-1.9,1.9c-1,0-1.9-0.8-1.9-1.9c0-1,0.8-1.9,1.9-1.9
		C144.3,176.4,145.2,177.3,145.2,178.3z"/>
</g>
<g>
	<path class="st0" d="M150.2,178.3c0,1-0.8,1.9-1.9,1.9c-1,0-1.9-0.8-1.9-1.9c0-1,0.8-1.9,1.9-1.9
		C149.4,176.4,150.2,177.3,150.2,178.3z"/>
</g>
<g>
	<path class="st0" d="M104.8,183.4c0,1-0.8,1.9-1.9,1.9c-1,0-1.9-0.8-1.9-1.9c0-1,0.8-1.9,1.9-1.9
		C104,181.5,104.8,182.3,104.8,183.4z"/>
</g>
<g>
	<path class="st0" d="M109.9,183.4c0,1-0.8,1.9-1.9,1.9c-1,0-1.9-0.8-1.9-1.9c0-1,0.8-1.9,1.9-1.9
		C109,181.5,109.9,182.3,109.9,183.4z"/>
</g>
<g>
	<path class="st0" d="M114.9,183.4c0,1-0.8,1.9-1.9,1.9c-1,0-1.9-0.8-1.9-1.9c0-1,0.8-1.9,1.9-1.9
		C114.1,181.5,114.9,182.3,114.9,183.4z"/>
</g>
<g>
	<path class="st0" d="M120,183.4c0,1-0.8,1.9-1.9,1.9c-1,0-1.9-0.8-1.9-1.9c0-1,0.8-1.9,1.9-1.9C119.1,181.5,120,182.3,120,183.4z"
		/>
</g>
<g>
	<path class="st0" d="M125,183.4c0,1-0.8,1.9-1.9,1.9c-1,0-1.9-0.8-1.9-1.9c0-1,0.8-1.9,1.9-1.9C124.2,181.5,125,182.3,125,183.4z"
		/>
</g>
<g>
	<path class="st0" d="M130,183.4c0,1-0.8,1.9-1.9,1.9c-1,0-1.9-0.8-1.9-1.9c0-1,0.8-1.9,1.9-1.9C129.2,181.5,130,182.3,130,183.4z"
		/>
</g>
<g>
	<path class="st0" d="M135.1,183.4c0,1-0.8,1.9-1.9,1.9c-1,0-1.9-0.8-1.9-1.9c0-1,0.8-1.9,1.9-1.9
		C134.2,181.5,135.1,182.3,135.1,183.4z"/>
</g>
<g>
	<path class="st0" d="M140.1,183.4c0,1-0.8,1.9-1.9,1.9c-1,0-1.9-0.8-1.9-1.9c0-1,0.8-1.9,1.9-1.9
		C139.3,181.5,140.1,182.3,140.1,183.4z"/>
</g>
<g>
	<path class="st0" d="M145.2,183.4c0,1-0.8,1.9-1.9,1.9c-1,0-1.9-0.8-1.9-1.9c0-1,0.8-1.9,1.9-1.9
		C144.3,181.5,145.2,182.3,145.2,183.4z"/>
</g>
<g>
	<path class="st0" d="M104.8,188.4c0,1-0.8,1.9-1.9,1.9c-1,0-1.9-0.8-1.9-1.9c0-1,0.8-1.9,1.9-1.9
		C104,186.5,104.8,187.4,104.8,188.4z"/>
</g>
<g>
	<path class="st0" d="M109.9,188.4c0,1-0.8,1.9-1.9,1.9c-1,0-1.9-0.8-1.9-1.9c0-1,0.8-1.9,1.9-1.9
		C109,186.5,109.9,187.4,109.9,188.4z"/>
</g>
<g>
	<path class="st0" d="M114.9,188.4c0,1-0.8,1.9-1.9,1.9c-1,0-1.9-0.8-1.9-1.9c0-1,0.8-1.9,1.9-1.9
		C114.1,186.5,114.9,187.4,114.9,188.4z"/>
</g>
<g>
	<path class="st0" d="M120,188.4c0,1-0.8,1.9-1.9,1.9c-1,0-1.9-0.8-1.9-1.9c0-1,0.8-1.9,1.9-1.9C119.1,186.5,120,187.4,120,188.4z"
		/>
</g>
<g>
	<path class="st0" d="M125,188.4c0,1-0.8,1.9-1.9,1.9c-1,0-1.9-0.8-1.9-1.9c0-1,0.8-1.9,1.9-1.9C124.2,186.5,125,187.4,125,188.4z"
		/>
</g>
<g>
	<path class="st0" d="M130,188.4c0,1-0.8,1.9-1.9,1.9c-1,0-1.9-0.8-1.9-1.9c0-1,0.8-1.9,1.9-1.9C129.2,186.5,130,187.4,130,188.4z"
		/>
</g>
<g>
	<path class="st0" d="M135.1,188.4c0,1-0.8,1.9-1.9,1.9c-1,0-1.9-0.8-1.9-1.9c0-1,0.8-1.9,1.9-1.9
		C134.2,186.5,135.1,187.4,135.1,188.4z"/>
</g>
<g>
	<path class="st0" d="M140.1,188.4c0,1-0.8,1.9-1.9,1.9c-1,0-1.9-0.8-1.9-1.9c0-1,0.8-1.9,1.9-1.9
		C139.3,186.5,140.1,187.4,140.1,188.4z"/>
</g>
<g>
	<path class="st0" d="M104.8,193.5c0,1-0.8,1.9-1.9,1.9c-1,0-1.9-0.8-1.9-1.9c0-1,0.8-1.9,1.9-1.9
		C104,191.6,104.8,192.4,104.8,193.5z"/>
</g>
<g>
	<path class="st0" d="M109.9,193.5c0,1-0.8,1.9-1.9,1.9c-1,0-1.9-0.8-1.9-1.9c0-1,0.8-1.9,1.9-1.9
		C109,191.6,109.9,192.4,109.9,193.5z"/>
</g>
<g>
	<path class="st0" d="M114.9,193.5c0,1-0.8,1.9-1.9,1.9c-1,0-1.9-0.8-1.9-1.9c0-1,0.8-1.9,1.9-1.9
		C114.1,191.6,114.9,192.4,114.9,193.5z"/>
</g>
<g>
	<path class="st0" d="M120,193.5c0,1-0.8,1.9-1.9,1.9c-1,0-1.9-0.8-1.9-1.9c0-1,0.8-1.9,1.9-1.9C119.1,191.6,120,192.4,120,193.5z"
		/>
</g>
<g>
	<path class="st0" d="M125,193.5c0,1-0.8,1.9-1.9,1.9c-1,0-1.9-0.8-1.9-1.9c0-1,0.8-1.9,1.9-1.9C124.2,191.6,125,192.4,125,193.5z"
		/>
</g>
<g>
	<path class="st0" d="M130,193.5c0,1-0.8,1.9-1.9,1.9c-1,0-1.9-0.8-1.9-1.9c0-1,0.8-1.9,1.9-1.9C129.2,191.6,130,192.4,130,193.5z"
		/>
</g>
<g>
	<path class="st0" d="M135.1,193.5c0,1-0.8,1.9-1.9,1.9c-1,0-1.9-0.8-1.9-1.9c0-1,0.8-1.9,1.9-1.9
		C134.2,191.6,135.1,192.4,135.1,193.5z"/>
</g>
<g>
	<path class="st0" d="M140.1,193.5c0,1-0.8,1.9-1.9,1.9c-1,0-1.9-0.8-1.9-1.9c0-1,0.8-1.9,1.9-1.9
		C139.3,191.6,140.1,192.4,140.1,193.5z"/>
</g>
<g>
	<circle class="st0" cx="102.9" cy="198.5" r="1.9"/>
</g>
<g>
	<path class="st0" d="M109.9,198.5c0,1-0.8,1.9-1.9,1.9c-1,0-1.9-0.8-1.9-1.9c0-1,0.8-1.9,1.9-1.9
		C109,196.6,109.9,197.5,109.9,198.5z"/>
</g>
<g>
	<circle class="st0" cx="113" cy="198.5" r="1.9"/>
</g>
<g>
	<path class="st0" d="M120,198.5c0,1-0.8,1.9-1.9,1.9c-1,0-1.9-0.8-1.9-1.9c0-1,0.8-1.9,1.9-1.9C119.1,196.6,120,197.5,120,198.5z"
		/>
</g>
<g>
	<path class="st0" d="M125,198.5c0,1-0.8,1.9-1.9,1.9c-1,0-1.9-0.8-1.9-1.9c0-1,0.8-1.9,1.9-1.9C124.2,196.6,125,197.5,125,198.5z"
		/>
</g>
<g>
	<circle class="st0" cx="128.2" cy="198.5" r="1.9"/>
</g>
<g>
	<path class="st0" d="M135.1,198.5c0,1-0.8,1.9-1.9,1.9c-1,0-1.9-0.8-1.9-1.9c0-1,0.8-1.9,1.9-1.9
		C134.2,196.6,135.1,197.5,135.1,198.5z"/>
</g>
<g>
	<path class="st0" d="M104.8,203.6c0,1-0.8,1.9-1.9,1.9c-1,0-1.9-0.8-1.9-1.9c0-1,0.8-1.9,1.9-1.9
		C104,201.7,104.8,202.5,104.8,203.6z"/>
</g>
<g>
	<path class="st0" d="M109.9,203.6c0,1-0.8,1.9-1.9,1.9c-1,0-1.9-0.8-1.9-1.9c0-1,0.8-1.9,1.9-1.9
		C109,201.7,109.9,202.5,109.9,203.6z"/>
</g>
<g>
	<path class="st0" d="M114.9,203.6c0,1-0.8,1.9-1.9,1.9c-1,0-1.9-0.8-1.9-1.9c0-1,0.8-1.9,1.9-1.9
		C114.1,201.7,114.9,202.5,114.9,203.6z"/>
</g>
<g>
	<path class="st0" d="M120,203.6c0,1-0.8,1.9-1.9,1.9c-1,0-1.9-0.8-1.9-1.9c0-1,0.8-1.9,1.9-1.9C119.1,201.7,120,202.5,120,203.6z"
		/>
</g>
<g>
	<path class="st0" d="M125,203.6c0,1-0.8,1.9-1.9,1.9c-1,0-1.9-0.8-1.9-1.9c0-1,0.8-1.9,1.9-1.9C124.2,201.7,125,202.5,125,203.6z"
		/>
</g>
<g>
	<path class="st0" d="M130,203.6c0,1-0.8,1.9-1.9,1.9c-1,0-1.9-0.8-1.9-1.9c0-1,0.8-1.9,1.9-1.9C129.2,201.7,130,202.5,130,203.6z"
		/>
</g>
<g>
	<circle class="st0" cx="102.9" cy="208.6" r="1.9"/>
</g>
<g>
	<path class="st0" d="M109.9,208.6c0,1-0.8,1.9-1.9,1.9c-1,0-1.9-0.8-1.9-1.9c0-1,0.8-1.9,1.9-1.9
		C109,206.7,109.9,207.6,109.9,208.6z"/>
</g>
<g>
	<circle class="st0" cx="113" cy="208.6" r="1.9"/>
</g>
<g>
	<path class="st0" d="M120,208.6c0,1-0.8,1.9-1.9,1.9c-1,0-1.9-0.8-1.9-1.9c0-1,0.8-1.9,1.9-1.9C119.1,206.7,120,207.6,120,208.6z"
		/>
</g>
<g>
	<path class="st0" d="M125,208.6c0,1-0.8,1.9-1.9,1.9c-1,0-1.9-0.8-1.9-1.9c0-1,0.8-1.9,1.9-1.9C124.2,206.7,125,207.6,125,208.6z"
		/>
</g>
<g>
	<circle class="st0" cx="128.2" cy="208.6" r="1.9"/>
</g>
<g>
	<path class="st0" d="M109.9,213.7c0,1-0.8,1.9-1.9,1.9c-1,0-1.9-0.8-1.9-1.9c0-1,0.8-1.9,1.9-1.9
		C109,211.8,109.9,212.6,109.9,213.7z"/>
</g>
<g>
	<path class="st0" d="M114.9,213.7c0,1-0.8,1.9-1.9,1.9c-1,0-1.9-0.8-1.9-1.9c0-1,0.8-1.9,1.9-1.9
		C114.1,211.8,114.9,212.6,114.9,213.7z"/>
</g>
<g>
	<path class="st0" d="M120,213.7c0,1-0.8,1.9-1.9,1.9c-1,0-1.9-0.8-1.9-1.9c0-1,0.8-1.9,1.9-1.9C119.1,211.8,120,212.6,120,213.7z"
		/>
</g>
<g>
	<path class="st0" d="M109.9,218.7c0,1-0.8,1.9-1.9,1.9c-1,0-1.9-0.8-1.9-1.9c0-1,0.8-1.9,1.9-1.9
		C109,216.8,109.9,217.7,109.9,218.7z"/>
</g>
<g>
	<circle class="st0" cx="113" cy="218.7" r="1.9"/>
</g>
<g>
	<path class="st0" d="M120,218.7c0,1-0.8,1.9-1.9,1.9c-1,0-1.9-0.8-1.9-1.9c0-1,0.8-1.9,1.9-1.9C119.1,216.8,120,217.7,120,218.7z"
		/>
</g>
<g>
	<path class="st0" d="M109.9,223.7c0,1-0.8,1.9-1.9,1.9c-1,0-1.9-0.8-1.9-1.9c0-1,0.8-1.9,1.9-1.9
		C109,221.9,109.9,222.7,109.9,223.7z"/>
</g>
<g>
	<path class="st0" d="M114.9,223.7c0,1-0.8,1.9-1.9,1.9c-1,0-1.9-0.8-1.9-1.9c0-1,0.8-1.9,1.9-1.9
		C114.1,221.9,114.9,222.7,114.9,223.7z"/>
</g>
<g>
	<path class="st0" d="M120,223.7c0,1-0.8,1.9-1.9,1.9c-1,0-1.9-0.8-1.9-1.9c0-1,0.8-1.9,1.9-1.9C119.1,221.9,120,222.7,120,223.7z"
		/>
</g>
<g>
	<path class="st0" d="M109.9,228.8c0,1-0.8,1.9-1.9,1.9c-1,0-1.9-0.8-1.9-1.9c0-1,0.8-1.9,1.9-1.9
		C109,226.9,109.9,227.8,109.9,228.8z"/>
</g>
<g>
	<circle class="st0" cx="113" cy="228.8" r="1.9"/>
</g>
<g>
	<path class="st0" d="M120,228.8c0,1-0.8,1.9-1.9,1.9c-1,0-1.9-0.8-1.9-1.9c0-1,0.8-1.9,1.9-1.9C119.1,226.9,120,227.8,120,228.8z"
		/>
</g>
<g>
	<path class="st0" d="M114.9,233.8c0,1-0.8,1.9-1.9,1.9c-1,0-1.9-0.8-1.9-1.9c0-1,0.8-1.9,1.9-1.9
		C114.1,231.9,114.9,232.8,114.9,233.8z"/>
</g>
<g>
	<path class="st0" d="M120,233.8c0,1-0.8,1.9-1.9,1.9c-1,0-1.9-0.8-1.9-1.9c0-1,0.8-1.9,1.9-1.9C119.1,231.9,120,232.8,120,233.8z"
		/>
</g>
<g>
	<path class="st0" d="M120,238.9c0,1-0.8,1.9-1.9,1.9c-1,0-1.9-0.8-1.9-1.9c0-1,0.8-1.9,1.9-1.9C119.1,237,120,237.8,120,238.9z"/>
</g>
<g>
	<path class="st0" d="M125,238.9c0,1-0.8,1.9-1.9,1.9c-1,0-1.9-0.8-1.9-1.9c0-1,0.8-1.9,1.9-1.9C124.2,237,125,237.8,125,238.9z"/>
</g>
<g>
	<circle class="st0" cx="128.2" cy="238.9" r="1.9"/>
</g>
</svg>
